<svg xmlns="http://www.w3.org/2000/svg" xmlns:xlink="http://www.w3.org/1999/xlink" width="228.31" height="220.7654" viewBox="0 0 228.31 220.7654"><defs><style>.cls-1{fill:none;}.cls-2{fill:#2b2b7f;}.cls-3{clip-path:url(#clip-path);}.cls-4{fill:#f2f2f2;}</style><clipPath id="clip-path" transform="translate(26.7429 18.837)"><circle class="cls-1" cx="91.9335" cy="83.9987" r="83.9987"/></clipPath></defs><g id="Layer_2" data-name="Layer 2"><g id="OBJECTS"><path class="cls-2" d="M15.73,58.9725a80.2734,80.2734,0,0,1,152.4493,0h3.715a83.8144,83.8144,0,0,0-159.8793,0Z" transform="translate(26.7429 18.837)"/><path class="cls-2" d="M168.2486,109.1807a80.2762,80.2762,0,0,1-152.5882,0H11.96a83.8019,83.8019,0,0,0,159.99,0Z" transform="translate(26.7429 18.837)"/><path class="cls-2" d="M19.0015,58.9725a77.1736,77.1736,0,0,1,145.9061,0h1.24a78.3465,78.3465,0,0,0-148.3864,0Z" transform="translate(26.7429 18.837)"/><path class="cls-2" d="M164.99,109.1807a77.19,77.19,0,0,1-146.0712,0H17.6838a78.3579,78.3579,0,0,0,148.5414,0Z" transform="translate(26.7429 18.837)"/><rect class="cls-2" x="26.7429" y="79.8204" width="183.6076" height="3.5234"/><rect class="cls-2" x="26.7429" y="122.6882" width="183.6076" height="3.5234"/><path class="cls-2" d="M10.4268,96.0551v-.7676l2.5693-.1665V73.185l-2.5693-.1665v-.7676H19.835v.7676l-2.5694.1665V95.121l2.5694.1665v.7676Z" transform="translate(26.7429 18.837)"/><path class="cls-2" d="M32.6943,72.5849a7.1049,7.1049,0,0,0-2.11.2832,4.3752,4.3752,0,0,0-1.5264.8008,3.2837,3.2837,0,0,0-.9258,1.2427,4.0263,4.0263,0,0,0-.3086,1.5932,4.5257,4.5257,0,0,0,.167,1.2178,3.2,3.2,0,0,0,.7168,1.2261,7.532,7.532,0,0,0,1.5938,1.2925,20.332,20.332,0,0,0,2.8105,1.4345q2.0347.9346,3.4444,1.752A10.4441,10.4441,0,0,1,38.85,85.1625a5.5452,5.5452,0,0,1,1.2764,2.06,8.4526,8.4526,0,0,1,.3916,2.7271,6.392,6.392,0,0,1-.4834,2.4023,6.2524,6.2524,0,0,1-1.46,2.1519,7.4158,7.4158,0,0,1-2.4521,1.5429,9.2666,9.2666,0,0,1-3.461.5923A14.3178,14.3178,0,0,1,28.958,96.23a7.5409,7.5409,0,0,1-2.4111-1.06,3.9813,3.9813,0,0,1-1.31-1.476,3.7758,3.7758,0,0,1-.4-1.66,3.0741,3.0741,0,0,1,.167-1.0259,2.4233,2.4233,0,0,1,.4922-.834,2.3308,2.3308,0,0,1,.8008-.5673,2.6525,2.6525,0,0,1,1.0762-.2085,2.5289,2.5289,0,0,1,1.0009.1919,2.2479,2.2479,0,0,1,.7588.517,2.3552,2.3552,0,0,1,.4834.7671,2.5752,2.5752,0,0,1,.1758.96,2.2487,2.2487,0,0,1-.6846,1.7847A2.58,2.58,0,0,1,27.34,94.22v.0673a2.6015,2.6015,0,0,0,.458.3711,4.7043,4.7043,0,0,0,.9511.4727,9.1769,9.1769,0,0,0,1.501.4131,10.9809,10.9809,0,0,0,2.11.1772,7.6348,7.6348,0,0,0,1.9941-.2671,6.21,6.21,0,0,0,1.7676-.769,4.3246,4.3246,0,0,0,1.26-1.22,2.8365,2.8365,0,0,0,.4834-1.6206,3.6508,3.6508,0,0,0-.2832-1.4371,3.9746,3.9746,0,0,0-1.0673-1.3618,13.2626,13.2626,0,0,0-2.1778-1.4873q-1.3931-.7932-3.6279-1.7964A11.6629,11.6629,0,0,1,27.9981,84.22,7.5468,7.5468,0,0,1,26.33,82.435a6.0959,6.0959,0,0,1-.8418-1.9683,9.4413,9.4413,0,0,1-.2334-2.11,6.7278,6.7278,0,0,1,.5-2.5855,6.1472,6.1472,0,0,1,1.4512-2.1269A6.9325,6.9325,0,0,1,29.55,72.2011a8.832,8.832,0,0,1,3.1777-.5337,10.045,10.045,0,0,1,2.9942.4,6.5306,6.5306,0,0,1,2.11,1.06,4.3211,4.3211,0,0,1,1.251,1.5347,4.195,4.195,0,0,1,.417,1.8266,2.7819,2.7819,0,0,1-.167.959,2.2933,2.2933,0,0,1-1.2676,1.3511,2.5918,2.5918,0,0,1-1.0673.2085,2.638,2.638,0,0,1-1.001-.1831,2.3952,2.3952,0,0,1-.7754-.5005,2.1753,2.1753,0,0,1-.501-.751,2.5262,2.5262,0,0,1-.1748-.9507,2.5767,2.5767,0,0,1,.2-1.0425,2.22,2.22,0,0,1,.542-.7675,2.2834,2.2834,0,0,1,.81-.4668,3.0913,3.0913,0,0,1,1-.1587V74.12a4.2044,4.2044,0,0,0-.4-.3755,3.8753,3.8753,0,0,0-.834-.5171,6.7311,6.7311,0,0,0-1.3174-.4507A7.888,7.888,0,0,0,32.6943,72.5849Z" transform="translate(26.7429 18.837)"/><path class="cls-2" d="M45.4365,84.228a15.546,15.546,0,0,1,1.2344-6.272,10.8288,10.8288,0,0,1,3.6279-4.5625,9.1822,9.1822,0,0,1,5.5137-1.7261,9.5441,9.5441,0,0,1,7.5811,3.3194,12.8227,12.8227,0,0,1,2.8779,8.7075,18.3666,18.3666,0,0,1-.3926,3.82,14.4314,14.4314,0,0,1-1.2256,3.5117,11.84,11.84,0,0,1-2.0273,2.9024,8.6856,8.6856,0,0,1-2.9268,1.977,9.6316,9.6316,0,0,1-3.7871.7339,9.3991,9.3991,0,0,1-7.6816-3.4033A13.7456,13.7456,0,0,1,45.4365,84.228Zm4.4707-.3667a24.8683,24.8683,0,0,0,.65,5.93,10.5981,10.5981,0,0,0,2.01,4.2871,4.0919,4.0919,0,0,0,3.2451,1.643q2.8023,0,4.3955-3.2529a19.805,19.805,0,0,0,1.5928-8.6411q0-5.6044-1.56-8.4238a4.7838,4.7838,0,0,0-4.3291-2.8189,4.3808,4.3808,0,0,0-1.8428.4A4.9048,4.9048,0,0,0,52.4258,74.27a8.1657,8.1657,0,0,0-1.3174,2.1767,14.4527,14.4527,0,0,0-.876,3.1949A25.1309,25.1309,0,0,0,49.9072,83.8613Z" transform="translate(26.7429 18.837)"/><path class="cls-2" d="M79.8623,90.55v-.7837L92.5732,71.6674h.917V89.6328l4.27-.05V90.55H93.49v4.5713l2.5694.166v.7676H86.835v-.7676l2.5517-.166V90.55Zm1.2344-.8007,8.29-.083V77.8559h-.05L81.0967,89.7Z" transform="translate(26.7429 18.837)"/><path class="cls-2" d="M101.73,92.2016a2.65,2.65,0,0,1,.6836-1.81,2.2862,2.2862,0,0,1,1.8018-.7758,2.4452,2.4452,0,0,1,1.7685.642,2.4909,2.4909,0,0,1-.0254,3.42,2.5942,2.5942,0,0,1-1.81.6255v.0669a4.5466,4.5466,0,0,0,3.6534,1.3173,3.2959,3.2959,0,0,0,3.0185-1.7094,8.759,8.759,0,0,0,1.0176-4.5122q-.016-1.1844-.0576-1.81a9.15,9.15,0,0,0-.1172-1.0259q-.0747-.4006-.2334-.9844a3.8007,3.8007,0,0,0-.3838-.9589,6.7317,6.7317,0,0,0-.5752-.8008,2.7964,2.7964,0,0,0-.8008-.6758,4.7542,4.7542,0,0,0-1.0761-.417,5.3529,5.3529,0,0,0-1.376-.1665,4.7663,4.7663,0,0,0-2.0352.4585,5.001,5.001,0,0,0-1.5849,1.1094l-.751-.4336-.0664-11.51h6.5556q.8175,0,1.2344-.0083c.2783-.0053.5947-.019.9512-.0415a4.7805,4.7805,0,0,0,.7676-.0918,4.9722,4.9722,0,0,0,.542-.1753.9164.9164,0,0,0,.4248-.2754,3.461,3.461,0,0,0,.2588-.4253,2.0071,2.0071,0,0,0,.2-.5835q.0585-.3171.1083-.7675h.918l-.167,5.5049-10.8926-.1v7.6567a7.8487,7.8487,0,0,1,4.47-1.3179,10.9718,10.9718,0,0,1,3.2451.4419,6.9764,6.9764,0,0,1,2.335,1.1763,6.2717,6.2717,0,0,1,1.5019,1.76,7.4872,7.4872,0,0,1,.834,2.11,10.6407,10.6407,0,0,1,.2412,2.3184,6.7715,6.7715,0,0,1-.4834,2.4858,7.9361,7.9361,0,0,1-1.418,2.31,6.7246,6.7246,0,0,1-2.5107,1.7431,9.0105,9.0105,0,0,1-3.5449.6675,8.2708,8.2708,0,0,1-4.8535-1.2515A3.7633,3.7633,0,0,1,101.73,92.2016Z" transform="translate(26.7429 18.837)"/><path class="cls-2" d="M121.1279,84.4951a21.536,21.536,0,0,1,.3506-3.9536,15.5827,15.5827,0,0,1,1.0752-3.5113,11.0222,11.0222,0,0,1,1.7774-2.8193,7.4214,7.4214,0,0,1,2.5439-1.8682,8.5044,8.5044,0,0,1,9.9912,2.5523q2.3613,3.2277,2.36,8.7324a24.8509,24.8509,0,0,1-.2832,3.8369,16.6226,16.6226,0,0,1-.9512,3.52,10.8394,10.8394,0,0,1-1.6758,2.9361,7.3194,7.3194,0,0,1-2.5693,1.9765,8.0678,8.0678,0,0,1-3.5117.7427,8.4161,8.4161,0,0,1-5.1377-1.5264,8.6717,8.6717,0,0,1-3.0186-4.2036A19.2031,19.2031,0,0,1,121.1279,84.4951Zm4.5371-.584a34.6891,34.6891,0,0,0,.4756,6.147,11.0122,11.0122,0,0,0,1.4932,4.1372,2.9584,2.9584,0,0,0,2.5019,1.5263q2.2017,0,3.378-3.0776a25.56,25.56,0,0,0,1.1758-8.7661q0-11.2932-4.4541-11.293a2.7951,2.7951,0,0,0-1.3672.3584,3.8694,3.8694,0,0,0-1.2432,1.2012,8.23,8.23,0,0,0-1.0176,2.11,17.6278,17.6278,0,0,0-.6836,3.2281A34.0494,34.0494,0,0,0,125.665,83.9111Z" transform="translate(26.7429 18.837)"/><path class="cls-2" d="M144.5127,84.4951a21.536,21.536,0,0,1,.3506-3.9536,15.5827,15.5827,0,0,1,1.0752-3.5113,11.0247,11.0247,0,0,1,1.7773-2.8193,7.4218,7.4218,0,0,1,2.544-1.8682,8.5044,8.5044,0,0,1,9.9912,2.5523q2.3613,3.2277,2.36,8.7324a24.8384,24.8384,0,0,1-.2832,3.8369,16.6164,16.6164,0,0,1-.9511,3.52,10.8447,10.8447,0,0,1-1.6758,2.9361,7.32,7.32,0,0,1-2.5694,1.9765,8.0671,8.0671,0,0,1-3.5117.7427,8.4161,8.4161,0,0,1-5.1377-1.5264,8.6715,8.6715,0,0,1-3.0185-4.2036A19.2031,19.2031,0,0,1,144.5127,84.4951Zm4.5371-.584a34.6891,34.6891,0,0,0,.4756,6.147,11.0122,11.0122,0,0,0,1.4932,4.1372,2.9584,2.9584,0,0,0,2.5019,1.5263q2.2017,0,3.3779-3.0776a25.56,25.56,0,0,0,1.1758-8.7661q0-11.2932-4.4541-11.293a2.7953,2.7953,0,0,0-1.3672.3584,3.8692,3.8692,0,0,0-1.2431,1.2012,8.227,8.227,0,0,0-1.0176,2.11,17.6278,17.6278,0,0,0-.6836,3.2281A34.0318,34.0318,0,0,0,149.05,83.9111Z" transform="translate(26.7429 18.837)"/><path class="cls-2" d="M166.7461,73.6855l7.3232-2.0181h.918V95.121l2.5684.1665v.7676h-9.2246v-.7676l2.5527-.1665V73.6357l-3.8867.9341Z" transform="translate(26.7429 18.837)"/><path class="cls-2" d="M48.4658,43.3393a4.1429,4.1429,0,0,1,1.6436,2.5786,4.1581,4.1581,0,0,1-3.4737,4.1934,4.1409,4.1409,0,0,1-2.84-1.1367L37.541,43.7919a4.1443,4.1443,0,0,1-1.6455-2.5786A4.16,4.16,0,0,1,39.37,37.02a4.1391,4.1391,0,0,1,2.84,1.1367l1.1689.9687-1.48,1.7862-1.289-1.0674q-1.1852-.9837-1.9971-.0039t.374,1.9629l6.4952,5.38q1.1688.97,1.98-.01.8115-.9792-.3574-1.9478l-1.7188-1.4238,1.4815-1.7861Z" transform="translate(26.7429 18.837)"/><path class="cls-2" d="M55.29,30.6342l1.335,1.7891-2.7,2.0156,2.7383,3.6651L60.06,35.5673l1.3349,1.7881-5.3632,4.0054L46.6846,28.8456l5.3633-4.0063,1.3359,1.7881-3.3975,2.5371L52.59,32.6513Z" transform="translate(26.7429 18.837)"/><path class="cls-2" d="M71.2422,31.5693a10.8808,10.8808,0,0,1-.5088-1.0938L69.78,28.2128a2.4126,2.4126,0,0,0-.9434-1.2607,1.5158,1.5158,0,0,0-1.3086.0557l-.7812.3295,2.47,5.86-2.2617.9531L60.8877,19.7573l3.4131-1.44a3.7545,3.7545,0,0,1,2.8926-.2617,3.7161,3.7161,0,0,1,1.8545,2.16l.4765,1.1308q.9375,2.2207-.249,3.544a2.2632,2.2632,0,0,1,1.6152.6147,5.1926,5.1926,0,0,1,1.1768,1.8164l.9365,2.2207a10.5565,10.5565,0,0,0,.4619.98,2.7263,2.7263,0,0,0,.5215.6631l-2.3027.9707A3.5652,3.5652,0,0,1,71.2422,31.5693ZM65.88,25.2807l.8838-.3721a1.4762,1.4762,0,0,0,.8711-.7793,1.7917,1.7917,0,0,0-.1553-1.3149l-.5986-1.4185a1.984,1.984,0,0,0-.753-1.0146,1.14,1.14,0,0,0-1.0214.019l-1.09.459Z" transform="translate(26.7429 18.837)"/><path class="cls-2" d="M84.3574,13.0683l.3526,2.2046-2.5332.4048L84.292,28.8984l-2.4238.3877L79.7529,16.0654l-2.5341.4057-.3526-2.2036Z" transform="translate(26.7429 18.837)"/><path class="cls-2" d="M96.0068,12.8632l-.6025,15.6074-2.4521-.0942.6015-15.6079Z" transform="translate(26.7429 18.837)"/><path class="cls-2" d="M109.6865,22.1162l-.5234,2.1694-3.08-.7432-1.5127,6.27-2.3857-.5756,3.6621-15.1846,6.3125,1.5215-.5235,2.17-3.9257-.9473-1.1045,4.5777Z" transform="translate(26.7429 18.837)"/><path class="cls-2" d="M123.1436,19.913l-6.5879,14.1636L114.33,33.041l6.5879-14.1631Z" transform="translate(26.7429 18.837)"/><path class="cls-2" d="M132.5664,33.5751l-1.3271,1.795-2.709-2.0035-2.7188,3.68,3.41,2.5191-1.3272,1.7949-5.3838-3.978L131.794,24.82l5.3837,3.978-1.3252,1.7949-3.41-2.52-2.5869,3.5Z" transform="translate(26.7429 18.837)"/><path class="cls-2" d="M147.0928,38.7846a3.5726,3.5726,0,0,1,.9971,2.7393,4.0791,4.0791,0,0,1-1.6319,2.5425L140.3789,49.11a4.0708,4.0708,0,0,1-2.8,1.1333,3.5722,3.5722,0,0,1-2.5078-1.4849l-2.48-2.9878,12.0215-9.9736Zm-11.2158,7.45.8828,1.064a1.1936,1.1936,0,0,0,.8662.4863,1.7092,1.7092,0,0,0,1.1-.4927l6.2519-5.187a1.714,1.714,0,0,0,.6866-.9892,1.192,1.192,0,0,0-.3174-.9414l-.8838-1.065Z" transform="translate(26.7429 18.837)"/><path class="cls-2" d="M52.5039,137.225a3.2677,3.2677,0,0,1-2.0654,1.2549,3.2844,3.2844,0,0,1-3.2529-2.8149,3.2729,3.2729,0,0,1,.9462-2.2241l4.1993-4.8526a3.2725,3.2725,0,0,1,2.0654-1.2549,3.2844,3.2844,0,0,1,3.2529,2.815,3.2734,3.2734,0,0,1-.9463,2.2241l-.7841.9067-1.3868-1.2.8653-1q.7968-.92.0361-1.5776-.7588-.6577-1.5557.2622l-4.36,5.0391q-.7852.9067-.0254,1.5639t1.5449-.249l1.1533-1.333,1.3868,1.2Z" transform="translate(26.7429 18.837)"/><path class="cls-2" d="M64.0537,139.6665l-.8642,1.5366-2.32-1.3047-1.7714,3.15,2.92,1.6416-.8643,1.5366-4.61-2.5918,6.0488-10.7568,4.6094,2.5918-.8633,1.5366-2.92-1.6416-1.6846,2.9966Z" transform="translate(26.7429 18.837)"/><path class="cls-2" d="M71.8525,149.7988a8.5807,8.5807,0,0,1,.251-.919l.58-1.85a1.9,1.9,0,0,0,.0752-1.2422,1.1889,1.1889,0,0,0-.8164-.6347l-.64-.2007L69.8,149.7465l-1.8506-.58,3.6914-11.7754,2.793.8754a2.4788,2.4788,0,0,1,1.8926,3.5679l-.29.9253q-.57,1.8171-1.96,2.0088a1.7933,1.7933,0,0,1,.66,1.1958,4.0916,4.0916,0,0,1-.2177,1.6958l-.5694,1.8169a8.3846,8.3846,0,0,0-.2226.8267,2.133,2.133,0,0,0-.0244.6665l-1.8838-.5909A2.8164,2.8164,0,0,1,71.8525,149.7988ZM71.83,143.27l.7236.227a1.1634,1.1634,0,0,0,.9219-.0249,1.4153,1.4153,0,0,0,.5781-.8721l.3643-1.1606a1.5637,1.5637,0,0,0,.0625-.9966.8959.8959,0,0,0-.625-.51l-.8916-.28Z" transform="translate(26.7429 18.837)"/><path class="cls-2" d="M87.4619,140.7172l-.2031,1.7515-2.0137-.2339-1.22,10.5073L82.1,152.5185l1.2188-10.5073-2.0137-.2334.2031-1.7515Z" transform="translate(26.7429 18.837)"/><path class="cls-2" d="M94.1836,140.7519l.2939,12.3374-1.9384.0464-.295-12.3374Z" transform="translate(26.7429 18.837)"/><path class="cls-2" d="M104.7881,144.9081l.3184,1.7339-2.462.4527.9209,5.0112-1.9072.3506-2.2314-12.1372,5.0459-.9278.3183,1.7339-3.1377.5772.6729,3.6582Z" transform="translate(26.7429 18.837)"/><path class="cls-2" d="M110.9,137.3828l4.07,11.6494-1.83.64-4.0713-11.65Z" transform="translate(26.7429 18.837)"/><path class="cls-2" d="M122.3018,137.8129l.8232,1.5586-2.3535,1.2437,1.6885,3.1958,2.9619-1.565.8232,1.5586-4.6767,2.4707-5.7647-10.9111,4.6768-2.4707.8232,1.5586-2.9619,1.5649,1.6064,3.04Z" transform="translate(26.7429 18.837)"/><path class="cls-2" d="M127.09,128.3408a2.8257,2.8257,0,0,1,2.1914-.71,3.2225,3.2225,0,0,1,1.9609,1.3594l3.81,4.9419a3.2183,3.2183,0,0,1,.8164,2.2427,2.8214,2.8214,0,0,1-1.2431,1.9384l-2.4287,1.8731-7.5362-9.7725Zm5.5664,9.0654.8652-.6675a.9369.9369,0,0,0,.4072-.67,1.3418,1.3418,0,0,0-.3574-.8818l-3.9189-5.0816a1.3442,1.3442,0,0,0-.7618-.57.9364.9364,0,0,0-.7519.2231l-.8653.6675Z" transform="translate(26.7429 18.837)"/><polygon class="cls-2" points="118.547 55.612 120.495 61.608 126.799 61.608 121.699 65.314 123.647 71.309 118.547 67.604 113.446 71.309 115.395 65.314 110.294 61.608 116.599 61.608 118.547 55.612"/><polygon class="cls-2" points="102.936 58.871 104.48 63.622 109.475 63.622 105.434 66.558 106.977 71.309 102.936 68.373 98.895 71.309 100.438 66.558 96.397 63.622 101.392 63.622 102.936 58.871"/><polygon class="cls-2" points="134.157 58.871 135.701 63.622 140.696 63.622 136.655 66.558 138.199 71.309 134.157 68.373 130.116 71.309 131.66 66.558 127.618 63.622 132.614 63.622 134.157 58.871"/><polygon class="cls-2" points="118.547 148.764 116.599 142.768 110.294 142.768 115.395 139.063 113.446 133.067 118.547 136.772 123.647 133.067 121.699 139.063 126.799 142.768 120.495 142.768 118.547 148.764"/><polygon class="cls-2" points="134.157 145.505 132.614 140.754 127.618 140.754 131.66 137.818 130.116 133.067 134.157 136.003 138.199 133.067 136.655 137.818 140.696 140.754 135.701 140.754 134.157 145.505"/><polygon class="cls-2" points="102.936 145.505 101.392 140.754 96.397 140.754 100.438 137.818 98.895 133.067 102.936 136.003 106.977 133.067 105.434 137.818 109.475 140.754 104.48 140.754 102.936 145.505"/><g class="cls-3"><path class="cls-4" d="M132.2437,122.5675q-1.0006-.3406-.5833.8032a.7567.7567,0,0,0,.5833-.8032" transform="translate(26.7429 18.837)"/><path class="cls-4" d="M27.5484,177.5645c-.0742-.4751-.151-.9517-.2256-1.4286-.7114.35-.1722,1.5458-.1345,1.7733.285-.1105.4069-.2257.36-.3447" transform="translate(26.7429 18.837)"/><path class="cls-4" d="M41.7936,195.3144c1.2138-.1592.1774-2.795-.1284-2.6112-.1614.1023.1784,1.3746.1455,1.623-.1461,1.2843-.8.4229-1.2269,1.4235a4.4382,4.4382,0,0,1,2.1463.73c.1664-1.2961-.8645-.2763-.9365-1.1651" transform="translate(26.7429 18.837)"/><path class="cls-4" d="M70.9494,178.9972c.3648-.8983.0346-.6527-1.141,1.0819-.1825.51.035.5725,1.141-1.0819" transform="translate(26.7429 18.837)"/><path class="cls-4" d="M45.777,144.278c-1.9474-1.752-.84-.2648-1.9766-1.1575C45.499,144.61,45.7105,144.5179,45.777,144.278Z" transform="translate(26.7429 18.837)"/><path class="cls-4" d="M76.268,54.2625c.1331,1.0649.6323,1.0581,1.1788.8973C77.7043,52.9577,76.5876,54.78,76.268,54.2625Z" transform="translate(26.7429 18.837)"/><path class="cls-4" d="M131.0429,41.4607c.0712.1877,1.2057.5168-.5281-1.0344-.65-.58-.43.0327.5281,1.0344" transform="translate(26.7429 18.837)"/><path class="cls-4" d="M68.0245,176.4745c1.8066.0974,3.9267,2.1232,5.54,1.1915-.1621-.8414-.56-1.015-1.182-.51a3.499,3.499,0,0,1-2.1614-.88c-.6967-.5369-2.5207-1.8278-2.1967.1978" transform="translate(26.7429 18.837)"/><path class="cls-4" d="M19.4962,192.4577c-.4183.4447-.0611,1.4647.4856,1.7567C19.9563,193.47,20.0457,192.6064,19.4962,192.4577Z" transform="translate(26.7429 18.837)"/><path class="cls-4" d="M-4.14,116.1558c-2.5156-1.079.944,1.157,0,0Z" transform="translate(26.7429 18.837)"/><path class="cls-4" d="M73.9836,136.0013c.1144-.293.2255-.5873.3446-.878C73.7422,134.7087,73.3327,135.7451,73.9836,136.0013Z" transform="translate(26.7429 18.837)"/><path class="cls-4" d="M40.8265,139.4676a4.2091,4.2091,0,0,0,.243,1.0758.9674.9674,0,0,0,.3945-.884,1.3052,1.3052,0,0,1-.6375-.1918" transform="translate(26.7429 18.837)"/><path class="cls-4" d="M14.1757,53.2175c.1145-.2568.1221-.4408.0215-.5641-.3035.7244-.5965,1.4607-.8935,2.1942.21.2852.8621-1.6108.872-1.63" transform="translate(26.7429 18.837)"/><path class="cls-4" d="M178.9847,92.3922a8.6719,8.6719,0,0,0,2.1413,1.8188,8.75,8.75,0,0,0-2.1413-1.8188" transform="translate(26.7429 18.837)"/><path class="cls-4" d="M33.3133,51.8828c1.1639.6507,1.1457-.2583-.0222-.9228.0072.3076.0162.6134.0222.9228" transform="translate(26.7429 18.837)"/><path class="cls-4" d="M136.33,141.4829c.0266-.2594.0545-.53.0826-.7851-.3071-.2655-.576,2.3756-.2827,2.7633q.1007-.982.2-1.9782" transform="translate(26.7429 18.837)"/><path class="cls-4" d="M101.2432,110.1922c-.5361.4143.7639,3.7267-.9455.2878a19.607,19.607,0,0,0,.8824,4.2661c.0663-1.1446,1.2149-1.8852.0631-4.5539" transform="translate(26.7429 18.837)"/><path class="cls-4" d="M140.6726,148.6865q-1.4142-.582-.5924.4271c.9484.39,1.1409.2425.5924-.4271" transform="translate(26.7429 18.837)"/><path class="cls-4" d="M179.4668,152.8492c.307-.6741-.9641-1.9858-.8739-1.2609C179.0391,152.2528,179.0545,153.1491,179.4668,152.8492Z" transform="translate(26.7429 18.837)"/><path class="cls-4" d="M141.6164,171.8906c-.2819.9913-.2563,1.6442.0841,1.9756.0422-.883.39-4.5252.0588-5.0052-.0463,1.0133-.0936,2.0208-.1429,3.03" transform="translate(26.7429 18.837)"/><path class="cls-4" d="M86.5613,35.6928c-.058-.0314-.1185-.0619-.18-.09-.8977.95.0789.6671.2265.7376q1.5057-1.5153-.0468-.6479" transform="translate(26.7429 18.837)"/><path class="cls-4" d="M101.2613,76.7326c-.8069,1.4674-.4176,2.6074-.8937,3.9654.3692-.1933,1.6392-4.35.8937-3.9654" transform="translate(26.7429 18.837)"/><path class="cls-4" d="M41.6023,101.733c.0036-.3657.0035-.7155.0052-1.0751-.3715.39-.3745,2.5106-.003,2.1367-.001-.3512,0-.71-.0022-1.0616" transform="translate(26.7429 18.837)"/><path class="cls-4" d="M164.1361,73.6831c.3945.5541.6273.8218.6648.7605-.6229-.8159-1.2384-1.6237-1.8609-2.4409q-.7062-.6512,1.1961,1.68" transform="translate(26.7429 18.837)"/><path class="cls-4" d="M156.2052,158.4362c.2238.3234,1.4073-.5147,2.2552-.936-.1014-.3069-1.8239.7835-2.2552.936" transform="translate(26.7429 18.837)"/><path class="cls-4" d="M79.4358,51.9764c.5692-.6709.4224-.8616-.4558-.5629q-.8615,1.0174.4558.5629" transform="translate(26.7429 18.837)"/><path class="cls-4" d="M53.5136,138.0953c.3209-.36.6421-.7252.9629-1.0861-.06-.3764-1.3473,1.3829-1.6584,1.6622-.04.32.1914.1243.6955-.5761" transform="translate(26.7429 18.837)"/><path class="cls-4" d="M63.6552,163.4847c.3511.41.7058.8264,1.0573,1.2395-.1439-.4778-1.1749-1.94-1.0573-1.2395" transform="translate(26.7429 18.837)"/><path class="cls-4" d="M135.3412,183.9312c-.8582-.5655-1.2089-.6744-1.0614-.3314q1.2774.845,1.0614.3314" transform="translate(26.7429 18.837)"/><path class="cls-4" d="M49.6252,141.5886c-.5124.1512-.62.4649-.3213.93.5081-.1528.6149-.4655.3213-.93" transform="translate(26.7429 18.837)"/><path class="cls-4" d="M9.5581,139.2426c-1.5321,1.7413-2.1263,2.5648-1.7723,2.4594q2.2878-2.6,1.7723-2.4594" transform="translate(26.7429 18.837)"/><path class="cls-4" d="M5.5309,119.17c-.7-.223-1.9121.7673-2.6193.56-.3535-.1109-.1938-1.0312-.6249-.9457-.4063.0744-.8734,1.9591-1.2732,2.12.8648.8539,3.01-1.0579,4.5174-1.7345" transform="translate(26.7429 18.837)"/><path class="cls-4" d="M128.6064,166.5746c-.1051.4615.2765,1.29.44.819-.2793-.8292-.1455-.3688-.44-.819" transform="translate(26.7429 18.837)"/><path class="cls-4" d="M134.4839,87.2785c-.1084.1227-.2132.2532-.323.3806.373.8633,1.1986-.1127.815-.9588-.1669.1924-.329.3822-.492.5782" transform="translate(26.7429 18.837)"/><path class="cls-4" d="M108.3669,176.4161c.3467-.3307.3608-.4413.0293-.3232a2.2035,2.2035,0,0,0-.8466,1.31c.2657-.3257.5388-.6522.8173-.9865" transform="translate(26.7429 18.837)"/><path class="cls-4" d="M56.91,71.1936q.3387-.14.6836-.2843c.36-.4013.27-.4781-.2584-.2339-.1392.17-.2795.3408-.4252.5182" transform="translate(26.7429 18.837)"/><path class="cls-4" d="M-2.4392,75.5507c1.5186,1.8443,3.7515,1.911,5.6756,3.1485C1.697,77.1045-.5738,76.4415-2.4392,75.5507Z" transform="translate(26.7429 18.837)"/><path class="cls-4" d="M103.7082,97.2627c-.084.0639-.1707.1384-.2547.2009a10.14,10.14,0,0,0,.1611,1.7662,2.2308,2.2308,0,0,0,.0936-1.9671" transform="translate(26.7429 18.837)"/><path class="cls-4" d="M162.4068,100.04c-.7531,1.7529-1.8184,4.1583-.8242,2.39.4542-1.1217,1.5319-3.6278.8242-2.39" transform="translate(26.7429 18.837)"/><path class="cls-4" d="M-10.08,110.7824a2.14,2.14,0,0,1-.0336.6711c.9025-.6655.1-.3256.6354-.7883a.4692.4692,0,0,0-.6018.1172" transform="translate(26.7429 18.837)"/><path class="cls-4" d="M90.4267,137.7262c.4235,1.0366.7651.3918,1.1793,1.6745.2093.0227-.2495-1.4725-.7205-1.7507-.9812-.8611.1442.054-.4588.0762" transform="translate(26.7429 18.837)"/><path class="cls-4" d="M132.4283,80.1985c.5518-.742.6492-1.162.2768-1.2388-.5518.7359-.6475,1.1559-.2768,1.2388" transform="translate(26.7429 18.837)"/><path class="cls-4" d="M149.5341,126.3689c-.7892-1.1628-.8426.2548-.4378,1.4944.1682.2067.4538-1.335.4378-1.4944" transform="translate(26.7429 18.837)"/><path class="cls-4" d="M60.3017,177.6268a3.6234,3.6234,0,0,0-1.5988,1.3865c.53-.4593,1.0689-.9263,1.5988-1.3865" transform="translate(26.7429 18.837)"/><path class="cls-4" d="M112.1036,88.2322c-.294.167-.2985,2.6381-.2508,3.3974a20.93,20.93,0,0,0,.2508-3.3974" transform="translate(26.7429 18.837)"/><path class="cls-4" d="M195.6305,101.79c.1662,1.0906.3474,1.2185.5457,1.3546-.1909-.72-.3651-1.5154-.5263-2.3758q-.0072.5145-.0194,1.0212" transform="translate(26.7429 18.837)"/><path class="cls-4" d="M57.4275,117.7013c-.342-.2559-1.4665,1.0341-1.8737.9172C55.9865,119.5751,56.4126,118.3383,57.4275,117.7013Z" transform="translate(26.7429 18.837)"/><path class="cls-4" d="M22.2816,164.04c.9089,1.3684,1.9628,4.4033,3.2167,4.694.2221-2.0268-1.6689-2.5048-2.0662-3.858-.3743-1.295.4815-1.9734.05-3.129-.7242-1.9652-.5273,1.844-.5882,2.04-.2823-.297-.2259-.4768-.6094-.5834a4.9464,4.9464,0,0,1-.003.8364" transform="translate(26.7429 18.837)"/><path class="cls-4" d="M133.2294,72.1719c1.0459,1.3986,2.104,1.3933.3411.1808C133.4522,72.29,133.3415,72.23,133.2294,72.1719Z" transform="translate(26.7429 18.837)"/><path class="cls-4" d="M7.3693,40.97c.4784-1.3108.96-2.6284,1.4348-3.9267C8.0928,37.8523,6.3708,42.563,7.3693,40.97Z" transform="translate(26.7429 18.837)"/><path class="cls-4" d="M26.85,119.2372c.0142.1529.0221.31.03.4646C27.7178,118.38,26.5157,117.56,26.85,119.2372Z" transform="translate(26.7429 18.837)"/><path class="cls-4" d="M17.3616,98.3879c-.1771-.5137-.4094-1.3934-.6825-2.55C16.3454,95.4524,17.53,100.1281,17.3616,98.3879Z" transform="translate(26.7429 18.837)"/><path class="cls-4" d="M132.3526,151.1324c.3157-.0072.0845.3988.5557.27C133.8091,150.5709,132.6551,150.5,132.3526,151.1324Z" transform="translate(26.7429 18.837)"/><path class="cls-4" d="M129.2932,73.0924c1.9086,1.5866.0227-.8343,0,0Z" transform="translate(26.7429 18.837)"/><path class="cls-4" d="M138.293,35.8911c.9794-1.2159.0481-1.7028,0,0Z" transform="translate(26.7429 18.837)"/><path class="cls-4" d="M28.91,66.5681c-.0744.1122-.1444.2293-.2174.34C29.935,68.5418,30.2284,68.0748,28.91,66.5681Z" transform="translate(26.7429 18.837)"/><path class="cls-4" d="M25.8734,89.7328c.2757.1954.865,1.6,1.3091,1.2134-.3506-.4388-1.4993-2.28-1.8723-1.9157.1879.2359.3751.4748.5632.7023" transform="translate(26.7429 18.837)"/><path class="cls-4" d="M16.36,155.868a2.7853,2.7853,0,0,0,1.0639.5193C17.0632,155.5453,15.675,154.8742,16.36,155.868Z" transform="translate(26.7429 18.837)"/><path class="cls-4" d="M51.3341,39.0287a3.5261,3.5261,0,0,0-1.2534-.9082A3.44,3.44,0,0,0,51.3341,39.0287Z" transform="translate(26.7429 18.837)"/><path class="cls-4" d="M177.3919,121.635c.3455-.012-1.3711-1.5682-1.46-1.3353A16.0624,16.0624,0,0,0,177.3919,121.635Z" transform="translate(26.7429 18.837)"/><path class="cls-4" d="M144.5821,44.9737c.2073-.3787-.7463-1.8112-.7038-1.0611C144.1137,44.265,144.3466,44.6159,144.5821,44.9737Z" transform="translate(26.7429 18.837)"/><path class="cls-4" d="M53.5105,6.161c.9593.5976,2.0921-.1976,0,0Z" transform="translate(26.7429 18.837)"/><path class="cls-4" d="M191.2556,76.0887a5.5675,5.5675,0,0,0-.9569,1.5421C190.5238,77.6921,191.13,77,191.2556,76.0887Z" transform="translate(26.7429 18.837)"/><path class="cls-4" d="M47.824,11.3617c.3046.3086.6074.8945.9236.6148C48.4369,11.6633,48.1353,11.0838,47.824,11.3617Z" transform="translate(26.7429 18.837)"/><path class="cls-4" d="M70.0875,70.2987a.3306.3306,0,0,0,.3282-.0849c-.5531-.3527-1.2648-1.7-1.448-1.3286a11.5691,11.5691,0,0,0,1.12,1.4135" transform="translate(26.7429 18.837)"/><path class="cls-4" d="M201.0037,76.1189c.16-.1189.3124-.2193.4751-.3365.286-1.1092-.19-.7674-.4751.3365" transform="translate(26.7429 18.837)"/><path class="cls-4" d="M146.316,102.8634c-.1569.386.2168.797,1.1119,1.2278a3.806,3.806,0,0,0-1.1119-1.2278" transform="translate(26.7429 18.837)"/><path class="cls-4" d="M198.2848-11.5187c.3992-.0077,2.619-2.4628,2.9823-3.2942Q199.7705-13.1614,198.2848-11.5187Z" transform="translate(26.7429 18.837)"/><path class="cls-4" d="M-11.1136,167.39a23.9293,23.9293,0,0,1-1.6783-3.9539c-.2341-.8356-3.3945-8.8995-4.0839-10.7177-2.1746-5.73-4.3508-11.4628-6.5585-17.2509-.9367-2.4578-2.7734-7.5706-3.3086-8.5018,1.864,4.713,1.9995,5.6244,3.7272,10.1227-.0159.1449,3.4143,9.0655,4.04,10.6615.3962,1.0106,2.8642,7.592,2.8555,7.57.3874,1.0193,5.5214,14.4136,2.6694,7.5061a13.7455,13.7455,0,0,0,1.184,2.8008c.1147-.0023,1.6063,2.9439,1.1534,1.7629" transform="translate(26.7429 18.837)"/><path class="cls-4" d="M130.6536,120.5237c-.15-.5047-.2968-1.0129-.4464-1.5141.4045-.007.7285.3755.9685,1.1252-.1741.1339-.3469.2544-.5221.3889" transform="translate(26.7429 18.837)"/><path class="cls-4" d="M-.3874,88.2962c.4735-.7217.2906,1.7024.17,1.9823-.2192.5172-1.0578,3.7908.3113,2.6256-.0668-.3368.77-7.63-.9617-5.744a1.1874,1.1874,0,0,1,.4807,1.1361" transform="translate(26.7429 18.837)"/><path class="cls-4" d="M150.0459,95.6234q.4767.2331-.2817,1.1118c.3727.1046,1.9723-1.2342,1.6514-1.9572-.6717,1.3253-1.1268.3824-1.37.8454" transform="translate(26.7429 18.837)"/><path class="cls-4" d="M153.7717,159.6333c-.3817-.4968-1.5026.4029-.5151,1.8524.4877.2882.5357-.543.5267-.8811-.0075-.1967-.1483-1.04-.0116-.9713" transform="translate(26.7429 18.837)"/><path class="cls-4" d="M107.4286,124.166c.8668.7212,1.5963,4.5707.5584,3.1528-.044-.99-.5622-2.2065-.5584-3.1528" transform="translate(26.7429 18.837)"/><path class="cls-4" d="M82.9872,108.1439c-.4322-.39-.4106-.9491.0812-1.6837C84.193,105.9723,84.1039,107.81,82.9872,108.1439Z" transform="translate(26.7429 18.837)"/><path class="cls-4" d="M61.91,90.3708c-.7928-1.2374-.951-1.6116-.4869-1.1391q1.1789,1.8415.4869,1.1391" transform="translate(26.7429 18.837)"/><path class="cls-4" d="M42.5168,113.5828c-.0274.1-.0475.2031-.0835.3-1.2068-.3786-2.368-.8248-2.122-1.0391.7375.2483,1.4818.4968,2.2055.7393" transform="translate(26.7429 18.837)"/><path class="cls-4" d="M86.0685,173.7461c-.03,2.6541.9027.1136.2921,4.328.485.5114.5461-1.9519.7675-3.8462-.2392.7544-.8564-.3762-1.06-.4818" transform="translate(26.7429 18.837)"/><path class="cls-4" d="M27.0888-2.2963A13.3914,13.3914,0,0,1,25.5328-4.52c-1.3161-1.8834-.0959-.9292.2526-.3214.2662.4656-.1818.3166.1733.827.4472.648,1.6835,1.8939,1.13,1.7179" transform="translate(26.7429 18.837)"/><path class="cls-4" d="M20.6281,68.8858c.7164-2.6229,1.1441-3.3719,1.28-2.2345-.495,1.3923-1.08,2.9245-1.28,2.2345" transform="translate(26.7429 18.837)"/><path class="cls-4" d="M78.577,128.9221c-.53.093-1.466.3691-.0816-.3971C79.64,128.1562,80.5732,127.8811,78.577,128.9221Z" transform="translate(26.7429 18.837)"/><path class="cls-4" d="M129.9771,175.3477c-.3875-.5964-.8636-1.4889-1.2215-1.2227a3.1,3.1,0,0,0,1.2215,1.2227" transform="translate(26.7429 18.837)"/><path class="cls-4" d="M-.526,140.323a13.1571,13.1571,0,0,1-.5444-2.4716c-.311.5995.383,2.6743.7128,4.25A7.5188,7.5188,0,0,0-.526,140.323" transform="translate(26.7429 18.837)"/><path class="cls-4" d="M60.4,108.5639c-.1585-.32-.3126-.6431-.467-.9631-.3792.191-.3639.56.0379,1.0907.1434-.0469.2856-.0891.4291-.1276" transform="translate(26.7429 18.837)"/><path class="cls-4" d="M17.7058,143.9567c-.3836.0794-.6734.7584-.6813,1.3983.3762.0756.749-.8719.6813-1.3983" transform="translate(26.7429 18.837)"/><path class="cls-4" d="M76.441,177.5115c-.6891-.1985-1.5361.715-2.0628-.2733.72-1.6416.0227-2.2626-.2734-2.56a29.1546,29.1546,0,0,0-1.4561,3.2867c.5949-.7542,1.0708-.452,1.6456-.979-.7136,2.1545.5035,1.5874.72,1.5242,1.0445-.3155.4376,1.99.9168,3.3415.5051,1.4187,1.6061.5409,2.54-.7078-.2995-.9174-.6281-.8793-1.268.1844-.8784,1.4657-.82.3191-1.1936-.8339.0381-1.8345,1.0084-1.1571.431-2.983" transform="translate(26.7429 18.837)"/><path class="cls-4" d="M122.5838,103.9681c-.215-.0387-1.8385-.111-1.2681.2063.8421.1333,3.1414.8983,1.2681-.2063" transform="translate(26.7429 18.837)"/><path class="cls-4" d="M125.3712,76.619c-.3178.5176-.7418.343-1.0045,1.081.3466.8856,1.2377-.5125,1.2815-.2829a5.9233,5.9233,0,0,0-.277-.7981" transform="translate(26.7429 18.837)"/><path class="cls-4" d="M183.5694,92.5416a3.4425,3.4425,0,0,1-.2543-1.3846c.49,2.3511,1.2261,4.391,1.813,6.5819.0356.1377,1.1391,5.9427,1.182,3.99a57.6146,57.6146,0,0,0-1.806-6.74c-.69-1.8791-1.2964-5.3144-1.9372-7.3875-1.3922-4.5087-1.915-10.1185-3.3255-14.6818-.2233,1.1507,1.1658,5.4736,1.2747,6.93-.1846-.6035-.6037-2.5871-.8135-2.0751.5012,1.656,3.6114,15.33,3.8668,14.7674" transform="translate(26.7429 18.837)"/><path class="cls-4" d="M179.776,171.8819c.6651.6435.5115-.0841,1.5841,1.0472.445.0284-.5836-1.3713-1.5841-1.0472" transform="translate(26.7429 18.837)"/><path class="cls-4" d="M60.5094,95.15c.7625.6474,1.6675,1.47,1.7542,1.188.0893-.25-1.6529-1.3536-1.7542-1.188" transform="translate(26.7429 18.837)"/><path class="cls-4" d="M112.6323,192.16c.459-1.222.2459.3362.64-.58-.033-.502-.6725-.1059-.64.58" transform="translate(26.7429 18.837)"/><path class="cls-4" d="M80.6344,116.89c-1.1129-3.86-.9683-1.6768,0,0Z" transform="translate(26.7429 18.837)"/><path class="cls-4" d="M42.9284,100.4414a1.0987,1.0987,0,0,0,.7856-.921c-.3742-.1684-.7956.6338-.7856.921" transform="translate(26.7429 18.837)"/><path class="cls-4" d="M140.8234,105.55c1.3611,4.9165,2.3081,9.6546,3.2768,14.3835.6279.2841-2.8123-14.46-3.1-16.0169-.5942-.42-.0992,1.3653-.1771,1.6334" transform="translate(26.7429 18.837)"/><path class="cls-4" d="M112.65,114.9224c-.0275-.5342-.1391-.4237.3541-.4631.417-.0362-2.0146-1.1851-1.6031.1139,1.1579-1.1919.0943.5785,1.0423.0375-.4277-.025-1.03.8393-.8442,1.0363.18.1935.6925-.5514,1.0509-.7246" transform="translate(26.7429 18.837)"/><path class="cls-4" d="M91.7417,148.493c-.0957.0262-.1953.0563-.2954.0857.1847-.5657,2.03-2.5337,2.4673-3.393a23.8838,23.8838,0,0,0-1.8827,2.4516c-1.3307,1.7978-.409.2094-1.0728.7678a2.054,2.054,0,0,0-.336.8721c-.033.7751-.5934.6621-1.0443,1.5231a7.08,7.08,0,0,0,2.1639-2.3073" transform="translate(26.7429 18.837)"/><path class="cls-4" d="M61.85,35.8918c-.9593-.9516-1.8572-1.3491-2.8333-2.4658-1.3474-1.5378.1528-1.7935-.6167-2.7824-.24.91-.188,2.4512-1.5209,1.035-1.0037-1.0715-.5787-1.5793-1.348-2.3432-.2931,1.4266,1.5991,2.8065,2.5623,3.7576-.09.7157-1.0425-.75-1.02.2133a25.5865,25.5865,0,0,1,1.9729,2.2678c1.1522,1.4375.8626.3949,1.5264.86,2.06,1.4366-.1015-.32.455-1.05.79.711,1.1254,1.9137,1.9816,2.2637.1826,1.3124-.8994-.762-.9532-.0266-.2911,1.1075.6614,1.6562,1.48,2.392.6421.5778,2.0707.9942,1.705-.3429-.3657-1.3139-2.8378-2.2107-3.3915-3.7781" transform="translate(26.7429 18.837)"/><path class="cls-4" d="M195.4784,123.0006c-1.322-.86-1.44-2.2506,0,0Z" transform="translate(26.7429 18.837)"/><path class="cls-4" d="M17.9772,88.0184a7.9829,7.9829,0,0,0,.5579-3.1521c.2406-.1989.7192,4.1573.7912,3.9417.1769-.52-.2972-4.17-.6372-4.3507-.24-.13-.8267,3.0148-.7119,3.5611" transform="translate(26.7429 18.837)"/><path class="cls-4" d="M79.6854,20.1624c.1144.79.64,1.326.7847,1.0793-.2818-.67-.5409-1.0276-.7847-1.0793" transform="translate(26.7429 18.837)"/><path class="cls-4" d="M59.636,196.3326c-.5736-.3951-5.759-4.5-6.2173-5.7139-.6176-.59-3.268-3.4072-3.3131-3.3658-.1127.1091,4.5094,5.0768,5.0241,5.6038A62.24,62.24,0,0,0,62.257,199.27c-1.18-1.8379-1.6747-.9326-2.621-2.9376" transform="translate(26.7429 18.837)"/><path class="cls-4" d="M32.6261,98.34c.4815-.6747.9609-1.3465,1.4542-2.0389-.1284-.2249-.9072,1.1037-1.2689,1.46-.7027.6987.2618-.9218.2947-1.2086-2.11,2.0169-4.5188,8.3289-4.6607,8.5327a65.4955,65.4955,0,0,0,3.146-5.9355c.3607-.2518-2.0954,4.7035-1.7234,4.1336,1.0172-1.5521,1.7482-3.3117,2.7581-4.9438" transform="translate(26.7429 18.837)"/><path class="cls-4" d="M-6.7035,160.3123c.207.0477.2624.4039.1761,1.0506a13.4975,13.4975,0,0,0,.878-4.0388c-.2766.833-.6257,2.5445-.8287,1.6437a2.95,2.95,0,0,0-.2254,1.3445" transform="translate(26.7429 18.837)"/><path class="cls-4" d="M92.9135,14.5714c1.2606.8577-.1276-.9394,3.7739,2.8157-.2895-.4464,4.0451,3.5911,4.6523,4.0653,2.1165,1.6475,5.9978,5.4355,7.4963,6.4586,1.7646,1.2055-4.9039-4.7353-5.7381-5.3828-4.2541-3.8631-6.931-5.84-12.0488-10.73a18.8994,18.8994,0,0,1,1.8644,2.7737" transform="translate(26.7429 18.837)"/><path class="cls-4" d="M45.1927,127.3846c-.34-.5937-.69-.7141-1.05-.3749.3316.235.8694.7675,1.05.3749" transform="translate(26.7429 18.837)"/><path class="cls-4" d="M162.0261,5.5525c-.5288,1.1031-.0358,1.9555-1.5872,1.7332.002.45.2466.573.7324.3576.7916-.1995.9932-1.2821,1.3372-2.0189-.1639-.0174-.3182-.046-.4824-.0719" transform="translate(26.7429 18.837)"/><path class="cls-4" d="M178.2971,187.851c.1134,1.4841-.9961.8889-.962,2.0493.42-.09,1.5132-1.0195,1.1444.488.3016-.0595,1.4264-1.9265,2.06-2.2837-.5815.6576-.1138,1.1656.3241,1.4023.2222-2.2962,4.1292-1.4084,4.3215,1.2672.57-.1116-.157-.944.3583-1.184-.5976.5772-.61-3.3454-.9488-3.8425-.1931.31-.3932.6007-.6042.8751a1.9173,1.9173,0,0,1,.5709,1.7065,11.0937,11.0937,0,0,0-6.2644-.4782" transform="translate(26.7429 18.837)"/><path class="cls-4" d="M157.1743,116.3644c.15-.33.3058-.6693.4557-.998-.9516,1.5539-1.39,1.3217-2.1121,2.5118.3649.1236.068,1.9175,1.5084-.29-.0632.0167-.2843-1.1079.148-1.2236" transform="translate(26.7429 18.837)"/><path class="cls-4" d="M145.4407,122.2475c-.8123-1.3717-1.2593-1.8718-1.3524-1.5036.8964.9869.3843.9821,1.0557,1.85.1-.1128.2022-.2261.2967-.346" transform="translate(26.7429 18.837)"/><path class="cls-4" d="M55.915,51.3177a.8883.8883,0,0,0,.2029-1.2124c-.5689.1436-.6351.5438-.2029,1.2124" transform="translate(26.7429 18.837)"/><path class="cls-4" d="M-7.9685,100.342c.2567.6018.82,1.4212,1.1346,1.27a5.16,5.16,0,0,1-.8125-1.8941c-.3079-.0349-.4156.1749-.3221.6241" transform="translate(26.7429 18.837)"/><path class="cls-4" d="M93.0256,196.8305c-.2771-1.0461.9874-3.8254,1.39-4.9271-.3909-.3571-2.6991,7.3665-2.083,7.9156.3444-.8715.4059-2.1369.693-2.9885" transform="translate(26.7429 18.837)"/><path class="cls-4" d="M37.2473,92.976c.52.2381,2.8075-1.8967,1.9785-.3647,1.32-.7623,3.99-2.73,2.6152-3.3936-.1129.2735-1.42,1.4236-.8344,1.4468a3.1656,3.1656,0,0,1,.7152-.7986c.4009-.0089-2.3106,2.4557-3.5612,2.2947.54-.6649,4.4135-4.0905,3.5273-4.2088-1.3889,1.7913-3.6222,3.3543-4.4406,5.0242" transform="translate(26.7429 18.837)"/><path class="cls-4" d="M90.2373,40.7991c-.6867-.8392-.3846,2.1269.1984,2.5842a15.6758,15.6758,0,0,1-.1984-2.5842" transform="translate(26.7429 18.837)"/><path class="cls-4" d="M71.1779,189.1388c.1534.0807.3044.1608.46.2428a10.4365,10.4365,0,0,1-1.0465-1.6194c-.5374-.29.2673.5431-.48.0154a11.54,11.54,0,0,0,1.067,1.3612" transform="translate(26.7429 18.837)"/><path class="cls-4" d="M37.3147,39.1971a75.608,75.608,0,0,0,5.7637-8.5985c1.0245-1.5669,2.0954-3.1834,3.5475-5.0956,1.3268-1.7487-.35-.3183,1.821-2.6787a10.8606,10.8606,0,0,1-1.7094,1.0984c-3.0485,3.1521-.9926,2.8048-3.8612,5.8814A19.1181,19.1181,0,0,1,40.24,34.2816c.4493.3148-3.0372,4.2934-2.9257,4.9155" transform="translate(26.7429 18.837)"/><path class="cls-4" d="M95.8318,57.7869c1.2338-1.02-1.3062.6881-1.39.6188.0713-.28.429-.64,1.1-1.0894-1.0685.2272-.3918.4136-.6975-.1329-2.4217,2.0037-.7636,2.0439.9877.6035" transform="translate(26.7429 18.837)"/><path class="cls-4" d="M159.4663,101.08c-.2519,3.1651-2.8206-3.8605-.4253.72C159.1826,101.5574,159.3245,101.3234,159.4663,101.08Z" transform="translate(26.7429 18.837)"/><path class="cls-4" d="M91.8374,126.087c.1144,1.1688-.6914,2.3819-.4761,3.36-.2772.126-.5046.533-.6827,1.2172a8.1169,8.1169,0,0,0,1.3239-5.1768.7606.7606,0,0,0-.1651.5991" transform="translate(26.7429 18.837)"/><path class="cls-4" d="M149.6746,109.72a1.1294,1.1294,0,0,0-.3641,1.42c.1992.14,1.03-.9295.6116-1.43-.0834-.0022-.1662.0045-.2475.01" transform="translate(26.7429 18.837)"/><path class="cls-4" d="M-1.1321,113.7822c.0577.0928.1249.1836.1829.2795.9734-.9822-.2469-.644.0916-1.3047-.4395.84-2.2369,1.43-2.2,2.2407.5023-.6467,2.115-1.9564,1.9258-1.2155" transform="translate(26.7429 18.837)"/><path class="cls-4" d="M105.9,75.6741c-.0675-1.5013-3.9221,3.477-.1741.8643-.0193-.307-1.5221.4956-.5454-.5256a4.8774,4.8774,0,0,0,2.6026-.8863,6.5782,6.5782,0,0,0-1.8831.5476" transform="translate(26.7429 18.837)"/><path class="cls-4" d="M146.6306,176.9817c-.56,1.0055-1.4837,2.1353-1.67,2.049-.1267.3748-.8267,2.0676-.3787,1.5775.1723-.92,1.5894-2.2913,2.049-3.6265" transform="translate(26.7429 18.837)"/><path class="cls-4" d="M90.0911,73.9668c.4007.9544-.4886,2.8756-.8122,4.0633.3009.8052.8623-.1031.6327-.7-.1221-.1735-.2365.06-.3392.7009-.069-1.3209.6452-1.9887.8592-3.1553-.0646-.4749-.1356-.9267-.2155-1.36a4.1656,4.1656,0,0,0-.6135,2.2628c.1632-.6072.3266-1.2131.4885-1.8112" transform="translate(26.7429 18.837)"/><path class="cls-4" d="M190.495,154.9853c.0849-.0158.1363,1.357,1.5332-1.0415a8.9075,8.9075,0,0,0-3.5939,3.2716,15.4767,15.4767,0,0,0,2.0607-2.23" transform="translate(26.7429 18.837)"/><path class="cls-4" d="M30.6643,148.3538a3.5039,3.5039,0,0,1,.9975,1.9246,1.77,1.77,0,0,0-.21-2.1194c-.39-.2615-1.0041-.1416-.787.1948" transform="translate(26.7429 18.837)"/><path class="cls-4" d="M95.5965,54.6524c.0064-.0721.26-1.5449.0617-1.7158-.37-.2927-.4158.9277-.0617,1.7158" transform="translate(26.7429 18.837)"/><path class="cls-4" d="M145.2394,28.012c-.4291.4859-.9409,1.3066-1.2922,1.6167a12.819,12.819,0,0,0-1.86,2.4751c-.5.7175-.99,1.405-1.4722,2.0693a9.4447,9.4447,0,0,1-.736,1.29c-.8668,1.6748-2.05,3.6172-2.9364,5.3085.4382-.4417,2.47-4.4467,3.3108-5.58.7273-.897-.52,1.05.6186-.4572.75-.9934.5634-.3517,1.6055-1.9138-.2918.5164-.5048.8412-.7357,1.2906,1.0893-1.5733,2.8082-4.5022,3.9364-6.2895,2.2675-3.59-.2648-.2947-.4381.036.1465-.1764.1433-.12-.0011.154" transform="translate(26.7429 18.837)"/><path class="cls-4" d="M177.0738,11.4627c-.186.1052.4114.8833.0738,1.2408-.5989.6359.59.7827-.3834,1.2.46.3865.8485.2613,1.1537-.3872.664-.6947.3792-1.3125-.8441-2.0535" transform="translate(26.7429 18.837)"/><path class="cls-4" d="M56.5068,44.5551c.2148-.0554.4382-.11.6489-.1656-.2262-.2951-.404-.5238-.6361-.8164-1.1592.0127.1748.724-.98.7373a4.345,4.345,0,0,0,.9672.2447" transform="translate(26.7429 18.837)"/><path class="cls-4" d="M28.3741,112.5582a5.359,5.359,0,0,0-.9421,2.1175A5.3176,5.3176,0,0,0,28.3741,112.5582Z" transform="translate(26.7429 18.837)"/><path class="cls-4" d="M115.05-.9673a7.85,7.85,0,0,0-1.4191.51c-.9112.3112,1.9869-1.383,1.7694-1.2458-2.8087.5552-3.0164,2.4569-.35.7354" transform="translate(26.7429 18.837)"/><path class="cls-4" d="M63.3147,62.7544c-.5859-.1855-4.74,1.44-5.8545,2.0955a23.52,23.52,0,0,0,5.8545-2.0955" transform="translate(26.7429 18.837)"/><path class="cls-4" d="M134.8181,163.9829c.7382-.6236.0823-.5376.0322-.7615-.8837.6566.114.7546-.0322.7615" transform="translate(26.7429 18.837)"/><path class="cls-4" d="M124.7624,47.9332a1.59,1.59,0,0,1-.5618.0728c-.0614.7469.4195.4659.7375.0286.1-.4722.0426-.5059-.1757-.1014" transform="translate(26.7429 18.837)"/><path class="cls-4" d="M76.5472,142.0074c.389.1669.3444-.2464.1666-.6195-.481-.2248-.6936-.1621-.6236.1944a.7546.7546,0,0,1,.457.4251" transform="translate(26.7429 18.837)"/><path class="cls-4" d="M-.4921,140.1519c-1.0087.4138-2.322,1.433-3.3624,1.8967.3007.3667,2.1293-.8545,3.3624-1.8967" transform="translate(26.7429 18.837)"/><path class="cls-4" d="M5.427,141.2245c.4439,1.5383-.0387,3.4786.48,4.74.0309,1.22-.8186,2.5889.3964,2.8177-.0584-.9757-.4693-.1717-.4741-1.3277q.5062.3854.6481-1.1859c-.362.3282-.6182-3.2214-.1427-3.375a2.8874,2.8874,0,0,0-.9076-1.6695" transform="translate(26.7429 18.837)"/><path class="cls-4" d="M103.0607,84.8667a2.51,2.51,0,0,1-.2082.7487c.77,1.4378,1.2417,2.4649,1.7441,2.3988.0454-.1483-.5134-.9352-.5421-.9268.4494-.0831-.938-2.4062-.9938-2.2207" transform="translate(26.7429 18.837)"/><path class="cls-4" d="M116.446,128.0534a3.3017,3.3017,0,0,1-.9243.4386c-.7008,1.6316,1.82-.5827.9243-.4386" transform="translate(26.7429 18.837)"/><path class="cls-4" d="M39.1648,99.535c.2622.26.5329.5641.8027.887-.18-.8018-.7256-1.4993-.649-2.1441-.3226-.0037-.4328.3673-.1537,1.2571" transform="translate(26.7429 18.837)"/><path class="cls-4" d="M182.2521,143.3659c-.1458-.0241-.3065-.0625-.4734-.1059a12.8271,12.8271,0,0,0,2.0431,1.518c-.5185-.4669-1.0384-.935-1.57-1.4121" transform="translate(26.7429 18.837)"/><path class="cls-4" d="M-1.2506,134.3532a2.5642,2.5642,0,0,0,.3616.559c.3818.0641.0713-.8754-.2679-1.297-.027.2493-.0639.4927-.0937.738" transform="translate(26.7429 18.837)"/><path class="cls-4" d="M77.785,135.7808a11.8219,11.8219,0,0,0-.5947-1.6736C77.2621,134.6743,77.8958,136.8276,77.785,135.7808Z" transform="translate(26.7429 18.837)"/><path class="cls-4" d="M118.9091,123.8208c.2368,1.2345,1.0341-.6661.9-1.4373-.22-.2306-.9251,1.0724-.9,1.4373" transform="translate(26.7429 18.837)"/><path class="cls-4" d="M87.6575,175.8423a3.9988,3.9988,0,0,1,2.7128-.4756c.0757-.4189-1.3813-.072-.5409-.9473-.1784.6562.7137-.2016,1.1475-.2745-.0859-.588-5.241,2.121-5.182,2.5055.4147-.3077,2.8142-1.5751,1.8626-.8081" transform="translate(26.7429 18.837)"/><path class="cls-4" d="M109.4013,139.5778a5.9053,5.9053,0,0,0,.5306-1.5073c-1.12,1.306-1.7212,3.0264-.5306,1.5073" transform="translate(26.7429 18.837)"/><path class="cls-4" d="M10.0845,178.88c-.31.8948-.0186,1.4255.0141,1.4106q.2957-2.3834-.0141-1.4106" transform="translate(26.7429 18.837)"/><path class="cls-4" d="M62.9767,97.5415c.4251-.6487.5064-.0071.9458-.2011-.7185-1.8155-1.5274-.158-1.8848.4128.5877,1.3016,1.1224.7675,1.5743.7106-.21-.3331-.4229-.6419-.6353-.9223" transform="translate(26.7429 18.837)"/><path class="cls-4" d="M35.8132,102.8824c.0346.4421.0723.8966.1059,1.3329a4.9849,4.9849,0,0,0,.2726-2.8179c-.2647.1419-.11,1.3512-.3785,1.485" transform="translate(26.7429 18.837)"/><path class="cls-4" d="M51.31,56.6594c-.1319.0337-.3946.4593-.7827,1.27-.1245.4-.0674.3947.175-.02.346-.4035-.1984,1.1446-.3353,1.8806.5024-1.4612,1.017-1.406,1.225-2.6811-1.1384,2.4426-.5269.0575-.282-.45" transform="translate(26.7429 18.837)"/><path class="cls-4" d="M78.46,148.7229a4.4063,4.4063,0,0,0,1.437-2.5616,7.1941,7.1941,0,0,0-1.437,2.5616" transform="translate(26.7429 18.837)"/><path class="cls-4" d="M53.7911,187.1558c-.3247-.8143,1.4682-3.6794-.4931-2.7345.6722.9665-.763,1.9443-.3842,2.35a11.7192,11.7192,0,0,0,.6048,1.4359,7.9259,7.9259,0,0,1,.2725-1.0511" transform="translate(26.7429 18.837)"/><path class="cls-4" d="M137.8558,144.4612c.3433-.3826.408-.5507.191-.4938-.5951.6128-1.3748,2.3588-1.847,2.4829a2.2589,2.2589,0,0,0,.5069-.9111c-.9143,1.2307-.3255,1.2941-1.2054,2.3239.5351-.2611,1.789-2.6387,2.3545-3.4019" transform="translate(26.7429 18.837)"/><path class="cls-4" d="M105.864,123.0718c-.2876-.7986-.4676-.8916-.5427-.296.2547,1.41.478.2184.5427.296" transform="translate(26.7429 18.837)"/><path class="cls-4" d="M145.634,77.8225a21.0572,21.0572,0,0,1,2.0975-3.7864c-.383-.1126-.8358.6607-1.2.4354-.46,1.5444.4881.8616-1.4238,2.2775.378-.1565.5984-.0471.6548.3338-1.6484.1082-.4316,1.4226-.1288.74" transform="translate(26.7429 18.837)"/><path class="cls-4" d="M175.8217,64.0455a1.3982,1.3982,0,0,1-.3979.6174c-.0649.2709.6-.3364.8951-.663-.0217-.2132.8338-1.9582-.3727-.4344.1986-.0975.1561.0646-.1245.48" transform="translate(26.7429 18.837)"/><path class="cls-4" d="M92.399,31.32a2.2114,2.2114,0,0,1-.2077-.5913c-.0868.307-.2432,1.6971-.0625,1.5589.0906-.32.1785-.642.27-.9676" transform="translate(26.7429 18.837)"/><path class="cls-4" d="M19.3251,154.9027a5.1593,5.1593,0,0,0,.5222,1.1313c-.4285-1.1415-1.6732-5.0987-1.9625-4.4657.6915,1.65.6907,1.3028,1.44,3.3344" transform="translate(26.7429 18.837)"/><path class="cls-4" d="M146.6292,92.8461a75.65,75.65,0,0,0-4.169-7.5528c-1.2627-2.035-3.6529-6.4234-4.4135-6.8816,1.587,2.8887,3.0991,5.3947,4.7227,8.489,1.1428,2.1779,2.1934,4.5066,3.25,6.6989A2.5008,2.5008,0,0,1,146.6292,92.8461Z" transform="translate(26.7429 18.837)"/><path class="cls-4" d="M155.089,149.6386a3.49,3.49,0,0,1,.2934,1.6526c-.1308-.4251-.515-.24-.6391-.0465.8164,2.6962,1.19-2.9173.3457-1.6061" transform="translate(26.7429 18.837)"/><path class="cls-4" d="M142.511,171.3332c.4529-.0311,3.4412,2.2225,3.0156.9063-.734.2727-2.7011-1.4532-3.6275-2.0453.0845-.0655.6161,1.1405.6119,1.139" transform="translate(26.7429 18.837)"/><path class="cls-4" d="M-9.9452,173.3278a3.1672,3.1672,0,0,0-.4242-.6369c.7274-.26,1.4109-1.6263.2844-1.2725.2249.733.4306-.0253.6314.5689-.1856.0691-1.5481.268-1.5759.613-.0384.4328.8919.7882,1.0843.7275" transform="translate(26.7429 18.837)"/><path class="cls-4" d="M65.2906,135.9215a1.0363,1.0363,0,0,0,.4839-.062c-1.1685-.5477-2.5041-1.1638-2.8507-.9065.8617.4021,1.6106.6225,2.3668.9685" transform="translate(26.7429 18.837)"/><path class="cls-4" d="M138.0459,66.88c-.3945-.1849-.2238.0409.2048.4572.7159.3312,1.2664.3373.2676-.5951-.34-.1574-.5631-.04-.4724.1379" transform="translate(26.7429 18.837)"/><path class="cls-4" d="M192.1989,18c-.3854.0909-.399-1.159-.2806-1.7339a3.6731,3.6731,0,0,0,1.2354-1.6806c-.3733.0719-2.058,1.2928-.8477-.6129.2818-.1393.4409-2.7293-.567-.4016-.356,1.0652-1.0834,7.4881.46,4.429" transform="translate(26.7429 18.837)"/><path class="cls-4" d="M86.1677,52.88a14.383,14.383,0,0,0-.5872-2.2088c-.3271-1.3559.1392-.8247-.1026-1.9972-.5915-.3112.2753,2.6933.4762,3.7184-.1911.5816-1.0473.017-.4184,3.1576a5.35,5.35,0,0,0-.0384-2.7235c.3159.6608.4944.2082.67.0535" transform="translate(26.7429 18.837)"/><path class="cls-4" d="M36.1523,122.6669a7.067,7.067,0,0,0-.1714,2.2416,6.3063,6.3063,0,0,0,.1714-2.2416" transform="translate(26.7429 18.837)"/><path class="cls-4" d="M144.7873,153.2167c1.3711-.64,3.0431-.3223,4.3708-1.7212-.4.066-.7935.1288-1.1971.1992-1.03,1.4828-1.9155.3049-3.1737,1.522" transform="translate(26.7429 18.837)"/><path class="cls-4" d="M85.9305,135.7059c.6182-.2215-.7459-.9613-.908-1.0227.24.9755.6381.2255.908,1.0227" transform="translate(26.7429 18.837)"/><path class="cls-4" d="M113.62,19.0029a5.8082,5.8082,0,0,0-1.2241-4.1893c.5233,2.6362,1.7639,7.0394.8,7.8535-.24-.69-.5194-1.3871-.8445-2.0921-.1074,1.7477,1.7106,3.48,1.4931,1.3131-.1023-1.0414-.0711-1.9157-.2249-2.8852" transform="translate(26.7429 18.837)"/><path class="cls-4" d="M79.3454,46.4005a5.1728,5.1728,0,0,0,.5732-1.9836,5.1654,5.1654,0,0,0-.5732,1.9836" transform="translate(26.7429 18.837)"/><path class="cls-4" d="M133.8123,192.3668c.4313.11-.2648-1.3341-.44-1.4367-.382-.0049.2582,1.3229.44,1.4367" transform="translate(26.7429 18.837)"/><path class="cls-4" d="M66.6269,189.3647a15.6411,15.6411,0,0,1,1.4843-2.5488c.0649-.9548-1.7582,2.7857-2.0626,3.3819.0639.0955.2242-.09.5783-.8331" transform="translate(26.7429 18.837)"/><path class="cls-4" d="M177.2106,36.5213c.0848-.0193.8936.7234.6834-.2378-.95,1.0859,0-2.2367-.8524-2.4316.413.6917.0432,1.74.169,2.6694" transform="translate(26.7429 18.837)"/><path class="cls-4" d="M63.2914,139.8827c-.269-.5041-.4651-.3835-.516-.1075.4694.8911.9147,1.1051,1.1776,1.0583a6.3744,6.3744,0,0,1-.6616-.9508" transform="translate(26.7429 18.837)"/><path class="cls-4" d="M50.9388,152.11c.7505,1.0709,1.4219,1.706.76,2.2581-.3142.2505.9956,1.837,1.3735,2.3581,1.0619,1.46,1.4439,1.1816.7183.1678-.9173-1.2777,1.2.5133,1.2276.5072-1.1052-1.3371-.294-1.7912.3622-2.2286.9326,2.1006,5.556,3.7427,3.3556,1.0753a.49.49,0,0,1-.6865.3318c-.0347-.37.1122-.5742.4467-.6162q1.3014-.1178.11-1.2758c-.5762-1.0574.4861-1.2224.7306-1.7208,1.07-2.1565-3.8541-3.7106-1.6344-1.6371-1.22,1.0045-.7232.8443.11,2.7995-.7264.5835-1.9233.1184-2.4319,1.0433-2.0427-2.48-2.49-2.9378-4.8256-3.656-1.5035-.4626-2.3769-.1062-2.0467,1.6412.7748-.6944.8015-1.8184,2.4306-1.0478" transform="translate(26.7429 18.837)"/><path class="cls-4" d="M33.6585,22.8c.74-1.15-.3475,1.6576.0834,1.2072.3473-.272.6784-2.4846.8637-3.0662-.84.5327-.9762,1.3381-1.7219,4.0262.3474-.5158.4147.2258.768-.0667-.0455-.7157-.455-.4221.0068-2.1" transform="translate(26.7429 18.837)"/><path class="cls-4" d="M102.7692,113.33c-.6333-.1395-.9071-.5815-1.5158-.5041.4166.67,3.7012,2.6734,3.6079,2.3162-.6653-.7889-1.5129-.9074-2.0921-1.8121" transform="translate(26.7429 18.837)"/><path class="cls-4" d="M140.6462,16.5541c-.0869,1.5038.78,1.0142.2493-.1437C140.83,16.2823,140.7657,16.17,140.6462,16.5541Z" transform="translate(26.7429 18.837)"/><path class="cls-4" d="M58.5765,69.0938c-.5813.3657-.0887-1.6065-.5319-1.4724-.1961.9611-.7573,2.4275.1752,2.5822a2.123,2.123,0,0,0,.3567-1.11" transform="translate(26.7429 18.837)"/><path class="cls-4" d="M86.3874-6.0778A25.997,25.997,0,0,0,82.742-3.4429c3.4339-1.9921,3.9622-1.8123,4.8292-1.8711,1.447-.09,6.6947-3.7392,10.4721-5.582-.31.01,4.5264-3.3554,4.4753-3.3315,1.0324-.4846.3312.4178,2.2239-.9566,2.7773-2.0192,2.87-1.9053,6.708-3.6327.2708-.2644-5.4927,2.1528-6.2258,2.4117-.8819.3052-1.79.6275-2.7112.9581-1.0631.5663-2.1722,1.4618-2.7091,1.4419-2.1609,1.5518-1.84,1.847-2.6956,1.578-.38-.1188-2.2514,1.2932-2.3945,1.4222-1.6655,1.4824.7394-.118.8238.3582A39.6638,39.6638,0,0,1,91.031-8.7235c.4672-.6418,2.7231-1.4974,3.316-2.1581-1.5164.8017-1.7621.6776-1.6407.4245.31-.6255,1.899-1.4925,1.1785-1.5576-1.1462-.1056.3406-1.7418-2.6524-.7674,1.4758-.18.9759.7612,1.8065.9487-.961.3724-1.1245.8331-1.6311,1.1559-1.07.6761.5613-.587-1.3619.5254-.6128.5134-.4453.5217-.9.9562,1.1491-.4525,2.2527-1.1284,3.4939-1.6859-.044.3188-1.4778,1.4549-.4487,1.1937a32.5686,32.5686,0,0,0-3.2864,1.9239c-.9721.7231,2.66-1.2775.7384-.0027a13.51,13.51,0,0,0-3.2554,1.6891" transform="translate(26.7429 18.837)"/><path class="cls-4" d="M78.2311,109.2933a137.2949,137.2949,0,0,1,1.7137-14.7216c.27-1.5793,1.9958-11.73,1.9881-11.8831A30.6681,30.6681,0,0,0,81.01,87.44c-.4727,2.99-1.24,6.4773-1.88,9.7114-.7664,3.8747-.7171,3.8541-1.5988,7.4072-.3654,1.4672-1.0964,4.7007-.78,4.5524-.57,2.3621-.4228.2411-1.0424,2.9186a8.1793,8.1793,0,0,0-.0019,2.8373c.568-2.7685-.1463-.9061.5944-3.7377.0436-.1775,1.4942-5.6125.9607-2.7378-.8884,4.7989-.2789,1.6757.6022-1.197-.2311,1.3261.41-.2732.2655,1.2785-.2052,2.1734-.4036,4.3112-.3779,5.7349.2795-1.983.1453-2.7781.4793-4.9141" transform="translate(26.7429 18.837)"/><path class="cls-4" d="M37.9575,157.7827c.1161.5576,1.0747-.405,1.0068-.7292-.7082.6921-1.7963.5356-2.5826.5678.4747.2482.55.6411,1.5758.1614" transform="translate(26.7429 18.837)"/><path class="cls-4" d="M177.1183,89.7333c-.1438.3214-1.6828,1.9217-.8287,1.3664A3.22,3.22,0,0,0,177.1183,89.7333Z" transform="translate(26.7429 18.837)"/><path class="cls-4" d="M24.6005,54.4162c.5856-.5579,1.101-2.2774.5066-1.9659a7.1694,7.1694,0,0,0-.5066,1.9659" transform="translate(26.7429 18.837)"/><path class="cls-4" d="M69.82,91.0092c-.55-.801-.2653.3026-.8562-.1491.7962,1.3076,1.4345,1.4539,1.7879,1.2966a9.9241,9.9241,0,0,1-.9317-1.1475" transform="translate(26.7429 18.837)"/><path class="cls-4" d="M32.2667,43.5071c.1085-.4645.2112-.9139.3207-1.3706a4.2855,4.2855,0,0,1-.8891-2.4279,6.725,6.725,0,0,0,.5684,3.7985" transform="translate(26.7429 18.837)"/><path class="cls-4" d="M-10.035,85.0583c-2.5176-1.9309,12.2855,12.4514,6.9055,6.997,1.2907,1.309-4.5576-4.2063-2.4363-2.436-.3738-.4493-3.7909-3.9819-4.4692-4.561" transform="translate(26.7429 18.837)"/><path class="cls-4" d="M90.4781,146.6087c.44,1.543-.3146,1.5051.5332,3.1249.2176-.5368.925-1.9459.4143-2.9137a4.0772,4.0772,0,0,1-.34,1.47,3.23,3.23,0,0,1,.1458-2.8934,5.153,5.153,0,0,1,.1685.8454c.468-2.21-.758-.0351-.9214.3671" transform="translate(26.7429 18.837)"/><path class="cls-4" d="M153.1939,122.2268c-.8756,2.2088,2.141-2.8663,1.5861-2.1145a16.7792,16.7792,0,0,1-1.5861,2.1145" transform="translate(26.7429 18.837)"/><path class="cls-4" d="M79.1972,51.5007c.9815-.9652-1.1144,2.1083,0,0Z" transform="translate(26.7429 18.837)"/><path class="cls-4" d="M104.4512,69.9494c.5424-.7408,1.6369-3.0479,1.9057-3.0189A16.8792,16.8792,0,0,1,104.4512,69.9494Z" transform="translate(26.7429 18.837)"/><path class="cls-4" d="M164.6165,97.8757c-.7134-1.1957-.2082.1743-1.0131-.8606-.7444-1.4365.6775.229.4425-.5129-.3753-.082-1.7616-1.6148-1.5879-.8742,1.1441,1.554,2.2079,2.77,3.3346,4.2522a16.3169,16.3169,0,0,1-1.1761-2.0045" transform="translate(26.7429 18.837)"/><path class="cls-4" d="M-2.6352,6.9c.2664-.8209,1.0119-1.4877.7614-2.64-.317-1.4828.9247-.7482.7448-1.9862A17.2936,17.2936,0,0,0,.56,4.33C-2.2027,2.119.3037,8.58-2.6352,6.9" transform="translate(26.7429 18.837)"/><path class="cls-4" d="M45.0631,169.8869c.1725-1.3644.358-1.3319.55-.64C45.4305,169.7908,45.2528,170.5011,45.0631,169.8869Z" transform="translate(26.7429 18.837)"/><path class="cls-4" d="M-14.6614,132.3269c-.3911-.2153-1.8119-2.9977-2.28-3.7281.4238.53.8621,1.1124,1.3133,1.7381.7807,1.1253,1.1005,1.7831.9668,1.99" transform="translate(26.7429 18.837)"/><path class="cls-4" d="M27.781,112.7233c-1.6693-3.4476-3.6307-7.2018-5.5572-10.9177-1.6883-3.2569-2.6663-6.11-6.2727-11.0324,2.81,4.9177,5.4364,9.6849,7.308,13.64a23.4977,23.4977,0,0,1,1.88,4.856c-2.2233-1.9873-1.9729-.7655-5.0286-4.248,3.6055,5.0557,3.7874,2.6059,7.67,7.7021" transform="translate(26.7429 18.837)"/><path class="cls-4" d="M44.0289,120.4075a8.1049,8.1049,0,0,0-1.9667,1.1354A8.4388,8.4388,0,0,0,44.0289,120.4075Z" transform="translate(26.7429 18.837)"/><path class="cls-4" d="M129.0466,36.9322c.373-.15-.2482,1.1065-.4726,1.922a5.1238,5.1238,0,0,0,.6718-1.8639c.0866-1.325.6981-1.7006.81-2.4747-.7118.98-1.6209,3.7335-2.257,4.5422.4426-.5231-.245,1.73.001,1.6355a17.8848,17.8848,0,0,1,1.2466-3.7611" transform="translate(26.7429 18.837)"/><path class="cls-4" d="M87.7159,116.246c.2327-.5487,1.5951.0658,1.6822-.5132a10.7771,10.7771,0,0,0-4.9859,1.1478c1.0979-.0623,2.0412-.5493,3.3037-.6346" transform="translate(26.7429 18.837)"/><path class="cls-4" d="M117.5843,8.89c-.0085,1.1155,2.6284-3.8118,2.3611-2.2441a17.2322,17.2322,0,0,1,1.1-2.2128c.0889-.7636-.9974,2.0817-.927,1.3727a14.5621,14.5621,0,0,1,.6421-1.3579c.5848-1.193.1215-.7233.2145-1.1245a52.7094,52.7094,0,0,1-2.8632,4.9043c-.7683.9007,1.3033-2.8448.45-1.7591-.2169.8979-.7783,1.66-.9775,2.4214" transform="translate(26.7429 18.837)"/><path class="cls-4" d="M75.0916,177.9558c1.6672,4.1576,3.58-8.0987,4.659-12.9318.6209-2.779,1.305-5.6192,1.7322-8.6038.2652-1.8519,1.03-1.4151.8073-4.9505-.1029,1.1185-.2029,2.2368-.3077,3.3514-.3256-2.1848-.6581,1.0385-1.0169,2.8355-.5042,2.5335-1.0016,5.0581-1.5282,7.5051-.9993,4.6558-2.17,9.4883-3.5574,11.5666.5142-1.2211.3165-3.3614.75-4.7334-.0336.553.0074.82.1213.8312,1.4767-8.4171,3.0816-16.43,4.8276-23.953-.8054,1.3917-2.0417,6.7381-2.69,9.7554-.2239,1.0383-.0771,2.68-.5014,3.0668a8.4153,8.4153,0,0,0-.8156,2.574.3048.3048,0,0,0,.3465.1387c-.55.7679-.7988,2.9363-1.3266,4.1128a.3023.3023,0,0,0,.3435.1286c-1.013,2.5212-1.4258,4.1945-1.8442,9.3064" transform="translate(26.7429 18.837)"/><path class="cls-4" d="M28.22-13.036a2,2,0,0,0,.5563-.9214,4.0784,4.0784,0,0,1-1.0773.2276c.1734.2321.35.4653.521.6938" transform="translate(26.7429 18.837)"/><path class="cls-4" d="M156.1638,130.0736a20.1089,20.1089,0,0,0-4.59,5.4018c-1.2253,1.7914-2.252,2.815-2.5233,3.9183a8.1167,8.1167,0,0,0-.2505,2.1456,5.2974,5.2974,0,0,0,1.05,3.12c.4529.598,1.9778.5253,1.7515,1.829,1.1693-1.6942.3716.2309,1.44-.8771-1.911-.6516-2.951-2.2375-3.3711-4.58-.2418-1.3886.4584-2.6262,2.5683-6.0667a46.9382,46.9382,0,0,1,3.9246-4.8908" transform="translate(26.7429 18.837)"/><path class="cls-4" d="M5.9891,157.114c.9646-.313-.3221-.6365-.828-.5334-.0006.3851.8474.174.828.5334" transform="translate(26.7429 18.837)"/><path class="cls-4" d="M54.2,92.51c-1.0043.1527,2.623,1.6514,2.9112,1.7434-.8552-.6487-2.0559-1.0918-2.9112-1.7434" transform="translate(26.7429 18.837)"/><path class="cls-4" d="M149.4087,157.3123c-1.0412.6985-1.0782.91-.125.6388.15-.0948.18-.6032.125-.6388" transform="translate(26.7429 18.837)"/><path class="cls-4" d="M104.7143-5.6251c.4606-.1729,3.8929-1.5747,4.401-2.4675-1.091.7954-3.4984,1.6335-4.401,2.4675" transform="translate(26.7429 18.837)"/><path class="cls-4" d="M116.539,96.8681q-.7677.7845-1.5266,1.5617c.9025-.4548.761-.0846,1.4421-.3424,1.8041-1.65-.2656-.5231.0845-1.2193" transform="translate(26.7429 18.837)"/><path class="cls-4" d="M-1.2666,136.5485c-.7629.4516.1555-.6586.5466-1.3137-1.4732,1.294-.7179,1.2131-1.7089,2.3144-1.5108,1.7526-.0591-.4706-1.0934.6215-.4806,1.132,1.0759-.4151,2.2557-1.6222" transform="translate(26.7429 18.837)"/><path class="cls-4" d="M189.2539,60.6739c1.572-4.2173,3.7236-10.0928,5.0578-15.0715C192.9937,48.1526,191.4575,54.626,189.2539,60.6739Z" transform="translate(26.7429 18.837)"/><path class="cls-4" d="M159.3384,88.7845a6.1845,6.1845,0,0,0-.1375,1.2238c.2786.2976.1544-1.1944.5488-1.12a.6457.6457,0,0,1-.4113-.1043" transform="translate(26.7429 18.837)"/><path class="cls-4" d="M77.946,181.2006c.6788-.4463,2.462-1.1762,1.8924-1.2988C78.9055,180.1418,77.808,180.9378,77.946,181.2006Z" transform="translate(26.7429 18.837)"/><path class="cls-4" d="M143.53-2.7975c-.413.6253-.6094.7848-.5834.4644.2122-.4532.9935-2.0842,1.1752-2.3359-.2015-.1175-.9,1.44-.9285.875-.5772,1.1324-1.06,2.764-1.871,4.4729-.4646.9785-1.2889,3.5823-.4607,2.2254-.53.166.238-.5794.61-1.42q.2448-.8358-.4028.0677c.6062-1.1651,2.1008-3.561,2.4611-4.3494" transform="translate(26.7429 18.837)"/><path class="cls-4" d="M80.8383,12.5789c-1.9935.602-.6684.6141-1.7416,1.0023a4.7377,4.7377,0,0,0,1.7416-1.0023" transform="translate(26.7429 18.837)"/><path class="cls-4" d="M64.1423,12.77c-.4874.6223-1.74,2.422-1.4691,2.7258q.82-.9032,1.63-1.799c-.6425.2429.296-1.4265-.1611-.9268" transform="translate(26.7429 18.837)"/><path class="cls-4" d="M147.3455,12.4475c-.2777-.7263-.6649-1.1075-1.2567-.7505C146.3059,12.6382,146.8757,12.37,147.3455,12.4475Z" transform="translate(26.7429 18.837)"/><path class="cls-4" d="M104.5205,151.0566a12.0614,12.0614,0,0,0-1.2546,2.2749,4.5557,4.5557,0,0,0,1.2546-2.2749" transform="translate(26.7429 18.837)"/><path class="cls-4" d="M9.2661,108.0672a7.0789,7.0789,0,0,0-.3185-1.9889,24.4547,24.4547,0,0,0,.4622,3.5244c-.0478-.5177-.0964-1.0273-.1437-1.5355" transform="translate(26.7429 18.837)"/><path class="cls-4" d="M73.2094,180.714c.0017-.7162-1.62,2.806-1.6265,3.5551.5417-1.186,1.0845-2.378,1.6265-3.5551" transform="translate(26.7429 18.837)"/><path class="cls-4" d="M153.8534,192.8c.3243-.0457,4.67,9.5517,4.9388,9.1139-.8059-1.5712-6.2744-12.4524-6.4731-12.37.3119.74,1.1875,2.5758,1.5343,3.256" transform="translate(26.7429 18.837)"/><path class="cls-4" d="M171.2854,101.8614c-.2857.09-.3456-.2984-1.2833.7749.3476-.13.1921.4864,1.2833-.7749" transform="translate(26.7429 18.837)"/><path class="cls-4" d="M133.6485,113.1684c-.34-.9031-.67,1.2408-.4166,1.9236.1427-.6308.2836-1.269.4166-1.9236" transform="translate(26.7429 18.837)"/><path class="cls-4" d="M93.4375,180.9585c.7041-.1168-3.1752.3651-3.8647.41.2022.3667,3.5339-.361,3.8647-.41" transform="translate(26.7429 18.837)"/><path class="cls-4" d="M120.0706,193.142c.33.5191,1.4538,2.1052,1.6628,1.8214-.3691-.5674-2.0942-2.5008-1.6628-1.8214" transform="translate(26.7429 18.837)"/><path class="cls-4" d="M181.5436,109.2807c-.418.0514,1.5235,1.1619,1.9515,1.1087-.6463-.368-1.2995-.7407-1.9515-1.1087" transform="translate(26.7429 18.837)"/><path class="cls-4" d="M73.6352,122.3769c.1888.427.3725.8524.5769,1.2906.8121.5463.2091-.7567-.5769-1.2906" transform="translate(26.7429 18.837)"/><path class="cls-4" d="M127.4027,122.1609c-.0064-.4467-2.0545-2.4224-2.06-1.8549.6872.6194,1.3721,1.234,2.06,1.8549" transform="translate(26.7429 18.837)"/><path class="cls-4" d="M54.5724,122.0847c-.0383-.2345-.0711-.4787-.111-.7137-.8732.6638-.7589,1.3759.111.7137" transform="translate(26.7429 18.837)"/><path class="cls-4" d="M59.2769-16.3528c.6552-.6077.6881-.9771.1124-1.0993-.3578.6435-.9345.6481-.2987,1.6008.0619-.1648.1244-.3358.1863-.5015" transform="translate(26.7429 18.837)"/><path class="cls-4" d="M53.0129,19.8938c.1575-.7123.3146-1.4268.47-2.13-.1141-.8043-.6523,2.3876-.8693,3.3727.13.0159.2651-.4024.4-1.2431" transform="translate(26.7429 18.837)"/><path class="cls-4" d="M166.1126,144.4824c-.682,1.1355-.59,1.1161.2645-.04a20.1462,20.1462,0,0,0,2.9058-4.3454c-.7475.748-2.5144,3.7305-3.17,4.3858" transform="translate(26.7429 18.837)"/><path class="cls-4" d="M33.5606,61.3276c-.6679.3467-7.2562,4.0088-7.2645,4.1773a76.5082,76.5082,0,0,0,8.3191-4.5843c-.3475.1328-.7047.2718-1.0546.407" transform="translate(26.7429 18.837)"/><path class="cls-4" d="M32.2277,164.91c2.891-3.8551,7.1044-11.06,10.3019-16.4295-3.39,5.2431-6.802,10.5341-10.3019,16.4295" transform="translate(26.7429 18.837)"/><path class="cls-4" d="M141.3335,115.68c.0266.25.0508.5051.0766.75.3413-.38.0144-3.004-.268-2.6422.065.6327.1261,1.2636.1914,1.8926" transform="translate(26.7429 18.837)"/><path class="cls-4" d="M118.2535,110.2621c-.02-.487-2.23,1.3466-.43.8018-.0738-.3519.4239-.4879.43-.8018" transform="translate(26.7429 18.837)"/><path class="cls-4" d="M42.8692,157.0707c.6218-.6494.2112-1.1167-.3234-.5441a6.091,6.091,0,0,0,.3234.5441" transform="translate(26.7429 18.837)"/><path class="cls-4" d="M14.34,89.6077c.0642-.8568.7058-2.8332.3675-2.896C14.6452,87.5548,14.0036,89.5377,14.34,89.6077Z" transform="translate(26.7429 18.837)"/><path class="cls-4" d="M50.1574,74.1393c.1589-.04.3138-.0765.4711-.1148.7914-.8821-.1519-.6454-.784.19.0978-.0161.2065-.0476.3129-.0751" transform="translate(26.7429 18.837)"/><path class="cls-4" d="M63.4811,76.2466a20.1417,20.1417,0,0,0-.1594-2.9911c-.2684.51-.0258,1.813.1594,2.9911" transform="translate(26.7429 18.837)"/><path class="cls-4" d="M132.49,60.3735c5.5638-4.5273-12.8762,9.6515-19.7123,14.8-9.2877,6.9931-7.898,6.1291-7.0235,5.61s-6.7176,5.5006,1.1579-.4153c11.5213-8.6543,22.984-17.803,25.5779-19.9947" transform="translate(26.7429 18.837)"/><path class="cls-4" d="M90.1638,172.8612c-.3184.17.3085-1.3712-.1584-1.1087-.5777,1.2368-1.8321,2.2275-1.92,1.52-.2-1.6279-.62,1.0009-1.6317,1.0791-.5088,1.141-1.41,4.78-.7549,4.6063,1.6026-.4288,3.1128-3.5291,3.7361-1.4781a20.3743,20.3743,0,0,0,.7294-4.6184" transform="translate(26.7429 18.837)"/><path class="cls-4" d="M169.4609,91.4389c-.278-.7626-1.26-1.885-.872-.8158.2844.2559.5828.5457.872.8158" transform="translate(26.7429 18.837)"/><path class="cls-4" d="M42.25,70.6546c.0566-.7142.9619-1.455.0478-.9609C42.1447,70.2074,41.9921,70.728,42.25,70.6546Z" transform="translate(26.7429 18.837)"/><path class="cls-4" d="M189.2473,62.6045c-.2052-.2478-.4061-.492-.6075-.7358a2.8,2.8,0,0,0,.4456,1.3108c.0532-.1858.1044-.384.1619-.575" transform="translate(26.7429 18.837)"/><path class="cls-4" d="M100.823,92.2553c-.3059-.6492-.48-.8788-.8112-1.6574-.26.2535.8988,2.4574.8112,1.6574" transform="translate(26.7429 18.837)"/><path class="cls-4" d="M33.2966,58.2143a11.8932,11.8932,0,0,0,1.6083,2.9488c-.3334-.6155-.493-2.1071-1.6083-2.9488" transform="translate(26.7429 18.837)"/><path class="cls-4" d="M52.287,80.5951c-.0542-1.1245.389-.9681.4474-1.94.2837-.1082-.0485.8856.2934.7457.42-5.2048-1.7041,1.6277-.7408,1.1944" transform="translate(26.7429 18.837)"/><path class="cls-4" d="M171.7207,84.0572c-.1362-.14-.2758-.2763-.4095-.4179a6.4113,6.4113,0,0,0,.3675,1.2178c.19-.0491.2046-.3071.042-.8" transform="translate(26.7429 18.837)"/><path class="cls-4" d="M31.3508,124.2948a6.2174,6.2174,0,0,0,.0413-1.638c-.0393,1.0755-.1036,1.4873-.1973,1.2479-.08.867.0512,1.37.156.39" transform="translate(26.7429 18.837)"/><path class="cls-4" d="M41.3852,102.9574c-.0518.21-.95,1.3533-.5437,1.6264.1262-.4551,1.0277-1.5018.5437-1.6264" transform="translate(26.7429 18.837)"/><path class="cls-4" d="M160.5985,99.1851q.52.4488-.4205-1.8063c-.1405.0494-.1326.6974-.35.7858.3271.9316.43.1694.7709,1.0205" transform="translate(26.7429 18.837)"/><path class="cls-4" d="M98.2379,87.3191a.5019.5019,0,0,0,.9786.2234c-.33-.0713-.6518-.1466-.9786-.2234" transform="translate(26.7429 18.837)"/><path class="cls-4" d="M166.0682-6.579c-.125-.1989-.1532-.1009-.0879.2771a7.4877,7.4877,0,0,1,.6925,1.72c-.3181-.8523.287-.7788-.6046-1.9967" transform="translate(26.7429 18.837)"/><path class="cls-4" d="M61.9684,92.4485c.2818-.1451.4458-.4413.7472-.7149-.1108-.3019-.3238-.3-.6487.012-.0333.2362-.0632.4724-.0985.7029" transform="translate(26.7429 18.837)"/><path class="cls-4" d="M94.897,166.2543c.4341.235.8607.47,1.3024.71-.42-.7532-3.0523-1.9875-3.9694-2.49.1015.4359,2.4643,1.272,2.667,1.78" transform="translate(26.7429 18.837)"/><path class="cls-4" d="M121.883,102.2723c-.0725-.8335-.3769-3.0313-.71-3.14a7.2816,7.2816,0,0,0,.71,3.14" transform="translate(26.7429 18.837)"/><path class="cls-4" d="M89.1292,181.7783a2.176,2.176,0,0,1,1.0509-.28c.0532-.0166-.468-.8281-1.3748.0174.1016.0906.2109.1758.3239.2623" transform="translate(26.7429 18.837)"/><path class="cls-4" d="M189.4344,54.46c.9067-.3586-.0611-.38-.5574-.19C187.93,54.7684,186.9544,55.7032,189.4344,54.46Z" transform="translate(26.7429 18.837)"/><path class="cls-4" d="M43.8992,129.2722c-.5794-.96-.9145-1.4027-1.0148-1.3392,1.5235,2.2073.3091.65-.4072-.4282.9454,1.9588-1.837-2.3564-.9284-.2918a9.0241,9.0241,0,0,1,.9994,1.8681,37.8965,37.8965,0,0,1,2.3316,3.1345,25.5213,25.5213,0,0,0-2.318-3.6637c-.71-1.9,2.5035,3.3916,2.9344,4.04-.7332-1.5848.2386.019-.1827-1.0113a19.2334,19.2334,0,0,0-1.4143-2.3081" transform="translate(26.7429 18.837)"/><path class="cls-4" d="M34.311,76.5561c.1983.1273,1.1438-.43,1.0358-1.0813-.3654-1.6636-1.3293-.42-1.0358,1.0813" transform="translate(26.7429 18.837)"/><path class="cls-4" d="M60.7756,4.2908c.0131-.3294-1.2664-1.2-2.4108-.95a21.45,21.45,0,0,1,2.0016,1.2452c.4059-.0395.5407-.1325.4092-.2951" transform="translate(26.7429 18.837)"/><path class="cls-4" d="M67.98,145.8119c.1183.7286.2083,1.5257.2654,2.3839.0345-.675.2029-2.8981-.0864-3.387-.0594.3327-.1192.6687-.179,1.0031" transform="translate(26.7429 18.837)"/><path class="cls-4" d="M153.5145,81.9348a1.986,1.986,0,0,0,.7638-1.2169A1.9837,1.9837,0,0,0,153.5145,81.9348Z" transform="translate(26.7429 18.837)"/><path class="cls-4" d="M63.4388,148.2571c-.6308-1.5068-.6245-.2674-.6936.0534.7809,1.9474-.2748-1.841,1.0382,1.3851-.1439-.5173-.2617-1.0051-.3446-1.4385" transform="translate(26.7429 18.837)"/><path class="cls-4" d="M50.7764,9.1486a13.5973,13.5973,0,0,0,2.5007,2.7472c1.14,1.5907,1.0249,2.1319,2.5155,3.0186-1.0816-1.6265-2.159-2.992-2.8129-3.96-.7689-.5356-1.4366-1.2727-2.2033-1.8056" transform="translate(26.7429 18.837)"/><path class="cls-4" d="M97.094,172.94c.7564,1.2434,3.3813,2.132,3.0028,1.6763-1.1354-1.1472-2.2416-1.2013-3.0028-1.6763" transform="translate(26.7429 18.837)"/><path class="cls-4" d="M43.837,42.0433c-.4236.6372,2.65.7793,3.3469.6436-.1611-.6927-2.4644-.6913-3.3469-.6436" transform="translate(26.7429 18.837)"/><path class="cls-4" d="M62.9949,29.21c.4485.61.8941,1.2075,1.345,1.8154.0456-.5383-1.2594-2.2332-1.345-1.8154" transform="translate(26.7429 18.837)"/><path class="cls-4" d="M149.1859,138.3488a10.9429,10.9429,0,0,0,2.0821-2.4238c-.2946.297-3.221,2.97-2.7479,2.8675.23-.1532.4381-.2909.6658-.4437" transform="translate(26.7429 18.837)"/><path class="cls-4" d="M32.7119,143.1756c.4666-1.4965.2776.9044.7447-.6-.3781-.0969-.6812-.6614-1.2867-.0371.1794.22.3614.4293.542.6368" transform="translate(26.7429 18.837)"/><path class="cls-4" d="M66.4454,84.7141c-.2366-.25-.5165-.2128-.8405.1162.0474.3151.8157.7914.8405-.1162" transform="translate(26.7429 18.837)"/><path class="cls-4" d="M6.3426,137.2709c.8071,1.141.3441-.1714-.1185-.8572.0351.2779.0823.5734.1185.8572" transform="translate(26.7429 18.837)"/><path class="cls-4" d="M117.9446,119.8254c-.2324.0037.7012,1.8612,1.1281,2.1961,2.283,1.7969-2.0009-2.5459,1.7316,1.1638.3124-.2449-.3295-1.3066-.3907-1.8316-1.0579-.7386-2.7538-2.1619-2.469-1.5283" transform="translate(26.7429 18.837)"/><path class="cls-4" d="M141.8729,99.1638c-.6648.4887-.9729.8438-.8884,1.0472,1.3747-.9543,1.681-1.3067.8884-1.0472" transform="translate(26.7429 18.837)"/><path class="cls-4" d="M64.6579,162.9766c-.887.5543-1.8425,1.21-1.8168,1.6766.6268-.4019,2.97-1.6632,1.8168-1.6766" transform="translate(26.7429 18.837)"/><path class="cls-4" d="M31.0245,184.7691c-.4237.3757-.1545.7243-.1433,1.0875C31.3067,185.4739,31.0355,185.1266,31.0245,184.7691Z" transform="translate(26.7429 18.837)"/><path class="cls-4" d="M104.3451,68.02c.4231,1.3091,2.0569,2.0793,1.9289,1.6792-.724-.7575-1.2288-.9683-1.9289-1.6792" transform="translate(26.7429 18.837)"/><path class="cls-4" d="M81.933,124.17c-.4617-.4394-.9367-.8914-1.4074-1.3415.008.51,1.4118,1.8519,1.4074,1.3415" transform="translate(26.7429 18.837)"/><path class="cls-4" d="M2.0147,1.0983C2.2305.8558,2.0434-2.009,1.59-1.2979,1.731-.4934,1.872.3,2.0147,1.0983" transform="translate(26.7429 18.837)"/><path class="cls-4" d="M141.9933,161.7871c-1.2431-.511-11.8065-5.1836-12.3227-4.6521,1.2434.5072,11.8568,5.1413,12.3227,4.6521" transform="translate(26.7429 18.837)"/><path class="cls-4" d="M89.3251,100.2455c-.3655-.4816-.1188-.7005-.1951-1.0582C89.6013,98.9807,90.301,100.4367,89.3251,100.2455Z" transform="translate(26.7429 18.837)"/><path class="cls-4" d="M141.4418,151.8955c.1747-.1086.3528-.2138.5275-.3292a8.2587,8.2587,0,0,1,.0624,1.0055c.1331-1.2637,1.0893-.2465,1.1224-1.7482-.0123.0115-.8468.6215-.8756.3508a5.4979,5.4979,0,0,1,.1566-.9445c-.3743.1875-.9492.3982-.9933,1.6656" transform="translate(26.7429 18.837)"/><path class="cls-4" d="M57.5165,68.1748c-.2529-.7693-.0167.2849-.2329-.3119.0083.2806,1.2617,5.3131,1.1873,4.0435-.2573-1.546-.6694-2.5069-.9544-3.7316" transform="translate(26.7429 18.837)"/><path class="cls-4" d="M88.8633,159.4985c-.7148-.6615-1.4767-1.8149-1.8263-1.6236q1.7133,2,1.8263,1.6236" transform="translate(26.7429 18.837)"/><path class="cls-4" d="M102.1857,61.66c.2887.4584,2.8037-3.1209,0,0" transform="translate(26.7429 18.837)"/><path class="cls-4" d="M186.19,8.1248c-1.3324-.3545-2.1411-.6381-3.1695,1.3452,1.2334-.2412,2.0784.3872,3.1695-1.3452" transform="translate(26.7429 18.837)"/><path class="cls-4" d="M47.7826,109.0083c2.1188-1.9507,4.2258-3.892,6.3507-5.8475,0,0-7.8441,6.44-6.3507,5.8475" transform="translate(26.7429 18.837)"/><path class="cls-4" d="M40.0063,29.7034a4.6026,4.6026,0,0,0,.6432,1.8812,4.0069,4.0069,0,0,0-.6432-1.8812" transform="translate(26.7429 18.837)"/><path class="cls-4" d="M24.8765,26.639c.53-1.1741,1.0508-2.3322,1.5784-3.5065-.266-.2054-1.5506,3.8213-1.5959,2.7809a12.6285,12.6285,0,0,0-.9916,2.4741c-.0109.1192.8965-1.6238,1.0091-1.7485" transform="translate(26.7429 18.837)"/><path class="cls-4" d="M53.0337,84.2119c-.1619.5737-.18.9652-.0417,1.1558.6936-.918.6084-1.977.0417-1.1558" transform="translate(26.7429 18.837)"/><path class="cls-4" d="M36.5367,158.0729c-.3077.2789-.6271.5552-.9209.8356.8071.2017,1.71-.6323.9209-.8356" transform="translate(26.7429 18.837)"/><path class="cls-4" d="M37.1884,108.0315a5.16,5.16,0,0,0-.659.5238c.2165.4518.8049.0684,1.1464.32.846-.8506-.0086-1.8289-.933-1.1626.1495.1065.2939.2164.4456.3188" transform="translate(26.7429 18.837)"/><path class="cls-4" d="M169.5021,177.7734c-.21.1841-.4839.7888-.7527,1.1216-.3577,1.1164.465.4693.7527-1.1216" transform="translate(26.7429 18.837)"/></g></g></g></svg>