<?xml version="1.0" standalone="no"?>
<!DOCTYPE svg PUBLIC "-//W3C//DTD SVG 20010904//EN"
 "http://www.w3.org/TR/2001/REC-SVG-20010904/DTD/svg10.dtd">
<svg version="1.0" xmlns="http://www.w3.org/2000/svg"
 width="568.000000pt" height="568.000000pt" viewBox="0 0 568.000000 568.000000"
 preserveAspectRatio="xMidYMid meet">
<metadata>
Created by potrace 1.14, written by Peter Selinger 2001-2017
</metadata>
<g transform="translate(0.000000,568.000000) scale(0.100000,-0.100000)"
fill="#000000" stroke="none">
<path d="M4565 4064 c-257 -39 -564 -125 -921 -258 -83 -31 -156 -56 -162 -56
-5 0 -12 7 -16 15 -3 8 -20 24 -38 35 -88 53 -198 -9 -198 -112 1 -49 14 -78
50 -106 55 -42 130 -33 179 24 25 27 31 44 31 78 l0 44 143 46 c318 102 567
158 789 178 344 32 476 -70 370 -284 -17 -35 -59 -98 -94 -140 l-63 -77 -327
-1 -327 0 -58 -87 c-32 -49 -103 -134 -159 -190 -97 -100 -102 -103 -145 -103
l-44 0 55 47 c84 71 176 171 230 250 28 39 50 74 50 77 0 4 -667 5 -1482 4
-1409 -3 -1486 -4 -1538 -22 -191 -64 -338 -203 -400 -379 -30 -86 -38 -238
-16 -331 45 -192 192 -353 386 -424 l75 -27 415 -3 415 -3 165 79 c358 173
706 305 796 303 42 -1 52 2 56 16 3 12 25 25 62 36 55 18 57 18 81 -1 l25 -20
-257 -85 c-238 -78 -483 -176 -693 -276 l-85 -40 415 -1 c275 0 409 -4 398
-10 -47 -28 -422 -171 -628 -240 -487 -163 -893 -237 -1100 -199 -41 7 -79 14
-85 14 -5 0 -17 5 -25 9 -11 7 -10 4 2 -11 10 -11 18 -22 18 -25 0 -6 63 -112
78 -131 5 -7 13 -23 17 -36 7 -22 5 -23 -27 -16 -81 16 -132 39 -169 76 -22
22 -39 34 -39 27 0 -6 19 -30 43 -53 73 -69 202 -93 403 -75 460 43 1216 295
1876 626 l88 44 772 0 c847 0 819 -2 948 61 93 46 205 160 254 259 40 82 66
186 66 265 0 136 -63 294 -158 397 -49 53 -148 128 -185 141 -7 2 20 40 62 88
274 314 291 520 46 584 -74 19 -293 19 -420 -1z m-3530 -1024 c47 -11 95 -59
95 -96 0 -14 -8 -39 -17 -55 -28 -47 -67 -59 -192 -59 l-111 0 0 -85 c0 -78
-2 -85 -20 -85 -19 0 -20 7 -20 195 l0 195 113 0 c61 0 130 -5 152 -10z m532
-13 c60 -32 71 -91 24 -137 -16 -16 -41 -32 -57 -35 -16 -4 -34 -8 -41 -10 -7
-2 24 -40 67 -85 44 -44 80 -85 80 -90 0 -6 -10 -10 -23 -10 -16 0 -38 20 -77
71 -74 94 -99 109 -189 109 l-71 0 0 -90 c0 -83 -1 -90 -20 -90 -19 0 -20 7
-20 196 l0 196 148 -4 c114 -3 154 -8 179 -21z m534 -12 c70 -50 84 -76 84
-159 0 -62 -4 -78 -27 -113 -39 -60 -103 -88 -198 -88 -88 0 -143 25 -193 87
-52 65 -48 170 11 240 44 52 94 69 194 66 78 -3 91 -6 129 -33z m353 -147 c40
-98 74 -180 77 -182 3 -3 39 77 81 177 l75 182 37 3 36 3 0 -195 c0 -189 -1
-196 -20 -196 -19 0 -20 7 -20 170 0 129 -3 170 -12 170 -7 0 -45 -76 -84
-168 -62 -146 -74 -167 -95 -170 -23 -3 -29 8 -94 164 -39 92 -76 169 -82 172
-10 3 -13 -35 -13 -167 0 -164 -1 -171 -20 -171 -19 0 -20 7 -20 196 l0 195
41 -3 41 -3 72 -177z m761 163 c150 -68 155 -280 8 -352 -38 -19 -63 -24 -123
-23 -110 0 -179 41 -215 126 -39 95 6 207 100 249 55 25 175 25 230 0z m565 4
c0 -12 -16 -15 -85 -15 l-85 0 0 -180 c0 -173 -1 -180 -20 -180 -19 0 -20 7
-20 180 l0 180 -80 0 c-64 0 -80 3 -80 15 0 13 27 15 185 15 158 0 185 -2 185
-15z m150 -180 c0 -188 -1 -195 -20 -195 -19 0 -20 7 -20 195 0 188 1 195 20
195 19 0 20 -7 20 -195z m458 179 c80 -33 122 -95 122 -179 0 -64 -25 -122
-66 -154 -31 -24 -114 -51 -159 -51 -58 0 -134 29 -174 68 -95 91 -69 251 51
311 53 26 169 29 226 5z m427 -157 l140 -172 3 173 c2 164 3 172 22 172 19 0
20 -7 20 -195 l0 -195 -27 0 c-24 0 -48 25 -162 165 -73 91 -137 165 -142 165
-5 0 -9 -74 -9 -165 0 -158 -1 -165 -20 -165 -19 0 -20 7 -20 195 l0 195 28
-1 c23 0 48 -26 167 -172z m-1265 116 c0 -7 -106 -86 -172 -128 l-28 -17 0 30
c0 25 10 37 63 76 47 34 71 45 100 46 20 0 37 -3 37 -7z"/>
<path d="M810 2935 l0 -85 94 0 c99 0 132 7 159 35 26 25 22 81 -8 110 -23 24
-31 25 -135 25 l-110 0 0 -85z"/>
<path d="M1285 3018 c-3 -8 -5 -46 -3 -84 l3 -69 112 1 c120 1 156 13 172 57
11 29 -6 75 -33 89 -11 6 -72 14 -133 16 -93 4 -114 2 -118 -10z"/>
<path d="M1880 3017 c-31 -15 -61 -37 -78 -58 -20 -26 -30 -105 -20 -155 20
-93 123 -150 225 -124 93 23 136 76 137 170 1 112 -69 181 -183 179 -31 0 -67
-6 -81 -12z"/>
<path d="M3005 3007 c-60 -34 -85 -78 -85 -149 0 -104 40 -157 136 -178 102
-23 200 29 224 120 15 57 -1 137 -36 175 -54 58 -166 73 -239 32z m265 -169
c0 -37 -9 -44 -123 -92 -105 -45 -109 -46 -138 -30 -17 8 -29 17 -27 19 1 2
38 17 81 34 43 17 104 44 135 61 69 35 72 36 72 8z"/>
<path d="M4190 3008 c-63 -33 -83 -66 -88 -142 -3 -53 0 -71 18 -104 79 -140
322 -103 345 53 9 55 1 100 -25 142 -43 71 -163 95 -250 51z"/>
<path d="M2900 1970 c0 -5 7 -10 15 -10 12 0 15 -17 15 -93 0 -59 -4 -97 -12
-105 -9 -9 3 -12 55 -12 59 0 71 3 92 25 30 29 32 58 5 85 -19 19 -19 22 -4
45 15 23 15 27 0 50 -15 23 -23 25 -91 25 -43 0 -75 -4 -75 -10z m125 -45 c0
-25 -4 -30 -27 -33 -26 -3 -28 -1 -28 33 0 34 2 36 28 33 23 -3 27 -8 27 -33z
m13 -98 c4 -35 -13 -57 -44 -57 -22 0 -24 4 -24 46 0 45 0 45 33 42 27 -2 33
-8 35 -31z"/>
<path d="M3465 1970 c-4 -6 -1 -17 5 -26 15 -18 42 0 33 22 -6 16 -29 19 -38
4z"/>
<path d="M4250 1950 c0 -34 15 -40 23 -10 3 14 14 20 31 20 l26 0 0 -95 c0
-79 -3 -96 -17 -104 -14 -8 -6 -10 35 -11 28 0 52 5 52 10 0 6 -7 10 -15 10
-12 0 -15 17 -15 95 l0 95 26 0 c17 0 28 -6 31 -20 8 -30 23 -24 23 10 l0 30
-100 0 -100 0 0 -30z"/>
<path d="M3128 1902 c-29 -3 -40 -22 -13 -22 12 0 15 -13 15 -60 0 -56 2 -61
26 -71 20 -7 32 -6 50 6 13 8 24 11 24 5 0 -5 15 -10 33 -9 17 0 26 3 20 6 -9
3 -13 29 -13 79 l0 74 -27 -6 c-34 -8 -54 -24 -30 -24 13 0 17 -9 17 -44 0
-47 -17 -70 -47 -64 -14 3 -19 16 -23 68 -5 64 -5 65 -32 62z"/>
<path d="M3332 1894 c-37 -26 -26 -64 22 -81 49 -17 52 -19 36 -38 -18 -22
-51 -19 -57 5 -8 30 -25 24 -21 -7 2 -24 8 -29 36 -31 43 -4 82 21 82 52 0 29
-15 41 -58 51 -23 5 -32 12 -30 23 4 23 32 27 51 7 20 -20 27 -19 27 4 0 33
-51 42 -88 15z"/>
<path d="M3475 1902 c-27 -5 -44 -22 -22 -22 25 0 25 -105 0 -119 -13 -8 8
-10 77 -11 54 0 89 4 82 9 -9 5 -12 25 -10 62 3 47 6 54 25 57 30 4 46 -30 40
-84 l-5 -44 37 0 c29 1 33 3 19 11 -14 8 -18 23 -18 64 0 74 -30 102 -80 75
-10 -6 -21 -6 -24 -1 -7 10 -54 2 -62 -10 -3 -5 2 -9 10 -9 13 0 16 -12 16
-60 0 -57 -1 -60 -25 -60 -20 0 -25 6 -31 36 -3 19 -4 51 -1 69 6 38 2 44 -28
37z"/>
<path d="M3758 1880 c-26 -26 -30 -36 -25 -66 3 -20 11 -42 18 -50 16 -19 73
-28 98 -15 32 17 25 27 -14 23 -37 -4 -65 11 -65 34 0 10 13 14 39 14 22 0 46
3 55 6 39 15 -2 84 -50 84 -15 0 -38 -12 -56 -30z m70 -2 c23 -23 13 -38 -23
-38 -22 0 -35 5 -35 13 0 16 20 37 35 37 6 0 16 -5 23 -12z"/>
<path d="M3922 1899 c-19 -7 -23 -15 -20 -41 2 -26 9 -35 33 -43 49 -16 58
-25 44 -41 -17 -20 -46 -17 -62 6 -14 21 -15 21 -19 -4 -6 -28 7 -36 53 -36
50 0 90 61 57 88 -7 5 -28 13 -46 17 -23 5 -32 12 -30 23 4 23 32 27 51 7 20
-20 27 -19 27 4 0 30 -41 39 -88 20z"/>
<path d="M4062 1899 c-19 -7 -23 -15 -20 -41 2 -26 9 -35 33 -43 49 -16 58
-25 44 -41 -17 -20 -46 -17 -62 6 -14 21 -15 21 -19 -4 -6 -28 7 -36 53 -36
50 0 90 61 57 88 -7 5 -28 13 -46 17 -23 5 -32 12 -30 23 4 23 32 27 51 7 20
-20 27 -19 27 4 0 30 -41 39 -88 20z"/>
<path d="M4458 1880 c-26 -26 -30 -36 -25 -66 3 -20 11 -42 18 -50 16 -19 73
-28 98 -15 32 17 25 27 -14 23 -37 -4 -65 11 -65 34 0 10 13 14 39 14 22 0 46
3 55 6 39 15 -2 84 -50 84 -15 0 -38 -12 -56 -30z m70 -2 c23 -23 13 -38 -23
-38 -22 0 -35 5 -35 13 0 16 20 37 35 37 6 0 16 -5 23 -12z"/>
<path d="M4633 1900 c-23 -9 -32 -40 -13 -40 6 0 10 5 10 11 0 14 52 7 57 -7
2 -7 -15 -18 -39 -25 -38 -12 -43 -18 -46 -47 -3 -26 1 -34 20 -41 16 -6 30
-5 46 5 12 8 22 10 22 4 0 -6 31 -10 78 -10 44 0 72 4 64 9 -9 5 -12 25 -10
62 3 50 5 54 28 54 23 0 25 -4 28 -48 2 -38 -1 -52 -15 -63 -16 -12 -13 -13
31 -14 41 0 47 2 37 14 -7 8 -11 36 -9 63 3 44 5 48 28 48 24 0 25 -3 28 -62
3 -63 3 -63 33 -63 29 0 30 1 15 22 -9 13 -16 43 -16 70 0 42 -3 50 -25 60
-19 8 -31 8 -50 0 -19 -9 -31 -9 -51 0 -20 9 -30 9 -45 0 -12 -8 -19 -8 -19
-2 0 6 -11 8 -27 4 -35 -8 -54 -24 -30 -24 15 0 18 -8 15 -57 -3 -51 -6 -58
-25 -61 -22 -3 -23 0 -23 52 0 81 -34 111 -97 86z m55 -91 c-4 -28 -33 -48
-48 -33 -14 14 -3 42 18 47 31 8 33 7 30 -14z"/>
</g>
</svg>
