<?xml version="1.0" encoding="utf-8"?>
<!-- Generator: Adobe Illustrator 25.1.0, SVG Export Plug-In . SVG Version: 6.00 Build 0)  -->
<svg version="1.1" id="Layer_1" xmlns="http://www.w3.org/2000/svg" xmlns:xlink="http://www.w3.org/1999/xlink" x="0px" y="0px"
	 viewBox="0 0 700 700" style="enable-background:new 0 0 700 700;" xml:space="preserve">
<g>
	<path d="M693.9,239.2l-37.6-44.7c-1-1.2-2.3-2.3-3.7-3.1l-0.7-0.4c-0.4-0.3-0.7-0.7-1.2-0.9c-0.7-0.4-1.5-0.7-2.4-1L357.4,30.9
		c-0.1-0.2-0.3-0.4-0.5-0.5c-4.2-4.6-11.1-5.7-16.6-2.7l-293,160.7c-0.5,0.1-1,0.2-1.5,0.4c-0.5,0.1-1,0.3-1.4,0.5
		c-0.4,0.2-0.8,0.2-1.2,0.4s-0.7,0.5-1,0.7c-0.4,0.3-0.8,0.6-1.2,0.9c-0.7,0.6-1.3,1.3-1.9,2c-0.2,0.3-0.5,0.4-0.6,0.7l-33,48.4
		c-2.1,3.1-2.9,6.9-2.1,10.5c0.8,3.6,3,6.8,6.2,8.8L36,278.2V497c0,5,2.7,9.6,7.1,12l297.3,163.4c2.1,1.1,4.3,1.7,6.6,1.7
		c2.4,0,4.8-0.6,7-1.9c0.2-0.1,0.3-0.3,0.5-0.4l296.1-162.9c0.6-0.3,0.9-0.8,1.4-1.2c0.8-0.6,1.5-1.1,2.1-1.8c0.6-0.7,1-1.4,1.4-2.2
		c0.4-0.7,0.9-1.4,1.2-2.3c0.3-0.9,0.4-1.8,0.6-2.8c0.1-0.6,0.4-1.1,0.4-1.7l0-218.4l32.6-18.7c3.5-2,6-5.5,6.7-9.5
		C697.6,246.3,696.5,242.2,693.9,239.2L693.9,239.2z M346.8,349.4l-27.2-14.9l27.3-18.1l27.3,18.2l-6.9,3.7L346.8,349.4z
		 M78.8,202.2L332.7,63v230l-40.2,26.7L78.8,202.2z M401.3,319.7L360,292.3V63.4L614.9,202L401.3,319.7z M53.9,219.7l232.5,127.7
		c0.3,0.1,0.5,0.3,0.7,0.4l41.3,22.7l-2.4,4.4L311,403l-254.2-144L35.9,246L53.9,219.7z M63.3,294l246.4,139.7
		c2.1,1.2,4.4,1.8,6.7,1.8c1.3,0,2.6-0.2,3.8-0.5c0.8-0.2,1.5-0.8,2.2-1.1c0.4-0.2,0.9-0.4,1.3-0.7c0.8-0.5,1.5-1,2.2-1.7
		c0.5-0.5,1-1.1,1.4-1.7c0.4-0.5,0.9-0.9,1.2-1.5l4.7-8.8v97.3l0,120.5L63.3,488.9L63.3,294z M630.2,488.8L360.5,637.2V415.8
		l7.4,12.8c2.5,4.4,7.1,6.8,11.8,6.8c2.3,0,4.6-0.6,6.8-1.8l80.8-46.3c0,0,0,0,0.1,0L606,308l24.2-13.8L630.2,488.8L630.2,488.8z
		 M637.1,258.7C637.1,258.7,637.1,258.7,637.1,258.7l-46.9,26.9L384.8,403.1l-19.1-32.8l8.8-4.9l32.6-17.6c0.3-0.2,0.5-0.5,0.8-0.7
		c0.1-0.1,0.3-0.2,0.4-0.3l232.6-128l21.4,25.4L637.1,258.7z"/>
	<g>
		<defs>
			<line id="SVGID_1_" x1="903.8" y1="1391.2" x2="203.8" y2="1391.2"/>
		</defs>
		<clipPath id="SVGID_2_">
			<use xlink:href="#SVGID_1_"  style="overflow:visible;"/>
		</clipPath>
	</g>
	<g>
		<defs>
			<line id="SVGID_3_" x1="1212.1" y1="1391.2" x2="512.1" y2="1391.2"/>
		</defs>
		<clipPath id="SVGID_4_">
			<use xlink:href="#SVGID_3_"  style="overflow:visible;"/>
		</clipPath>
	</g>
	<g>
		<defs>
			<polyline id="SVGID_5_" points="1340.8,691.3 1340.8,1391.2 640.8,1391.2 			"/>
		</defs>
		<clipPath id="SVGID_6_">
			<use xlink:href="#SVGID_5_"  style="overflow:visible;"/>
		</clipPath>
	</g>
	<g>
		<defs>
			<polyline id="SVGID_7_" points="1357.1,691.3 1357.1,1391.2 657.1,1391.2 			"/>
		</defs>
		<clipPath id="SVGID_8_">
			<use xlink:href="#SVGID_7_"  style="overflow:visible;"/>
		</clipPath>
	</g>
	<g>
		<defs>
			<polyline id="SVGID_9_" points="1391,691.3 1391,1391.2 691,1391.2 			"/>
		</defs>
		<clipPath id="SVGID_10_">
			<use xlink:href="#SVGID_9_"  style="overflow:visible;"/>
		</clipPath>
	</g>
</g>
</svg>
