<svg id="Layer_1" data-name="Layer 1" xmlns="http://www.w3.org/2000/svg" viewBox="0 0 96 96"><defs><style>.cls-1{fill:transparent;}.cls-2{fill:#feb302;}.cls-3{fill:#6c3928;}</style></defs><path class="cls-1" d="M7134.941,695.70543c0,14.78915-.045,29.57858.05014,44.36711.01374,2.1358-.14809,2.91477-2.71429,2.90372q-45.36241-.19528-90.72591-.01875c-2.21657.00707-2.50495-.57-2.49971-2.60427.07777-30.24279.11828-60.48618-.05108-90.72822-.01607-2.86991,1.15854-2.592,3.01785-2.59031,30.076.0272,60.15214.06119,90.22766-.05822,2.4792-.00985,2.76988.64323,2.75372,2.86639C7134.88831,665.12973,7134.941,680.41778,7134.941,695.70543Zm-45.01623-40.19727c-15.26734-2.08591-31.55336,7.2052-38.744,21.94456a39.90557,39.90557,0,0,0,53.87274,53.12858c14.48985-7.37516,23.63569-23.73836,21.39591-38.452-2.90744.78555-5.93717,1.55622-8.62177-.31023-1.9213-1.33578-3.43527-1.015-5.45053-.206-6.83339,2.74329-13.11613,1.49738-18.31643-3.71108-5.20224-5.21041-6.31207-11.45572-3.7409-18.35246.49641-1.33153,1.72117-2.55769.55592-4.12413C7088.57921,662.3383,7088.68225,658.96019,7089.92478,655.50816Zm21.52929,7.5231c1.76854-.53962,3.438-1.59712,3.413-3.91819-.02681-2.4891-1.524-4.085-4.04387-3.95574a3.6568,3.6568,0,0,0-3.71738,4.28148C7107.305,661.68389,7108.89526,662.81424,7111.45407,663.03126Zm-3.31834,11.90029c1.64141-.30937,2.73515-1.23132,2.71376-2.941a2.65661,2.65661,0,0,0-2.76363-2.831,2.68345,2.68345,0,0,0-2.94822,3.11765A2.82868,2.82868,0,0,0,7108.13573,674.93155Zm15.77829.14794c-1.65964.25069-2.77114,1.14048-2.81911,2.84613a2.65269,2.65269,0,0,0,2.66512,2.92556,2.68811,2.68811,0,0,0,3.0522-3.017C7126.75474,676.14609,7125.586,675.26619,7123.914,675.07949Z" transform="translate(-7039 -646.97638)"/><path class="cls-2" d="M7089.92478,655.50816c-1.24253,3.452-1.34557,6.83014.95091,9.9173,1.16525,1.56644-.05951,2.7926-.55592,4.12413-2.57117,6.89674-1.46134,13.14205,3.7409,18.35246,5.2003,5.20846,11.483,6.45437,18.31643,3.71108,2.01526-.809,3.52923-1.12981,5.45053.206,2.6846,1.86645,5.71433,1.09578,8.62177.31023,2.23978,14.71361-6.90606,31.07681-21.39591,38.452a39.90557,39.90557,0,0,1-53.87274-53.12858C7058.37142,662.71336,7074.65744,653.42225,7089.92478,655.50816Zm-24.7462,29.43148c-3.61533.39457-5.97875,2.2122-6.02584,5.93587-.04664,3.68825,2.12782,5.9377,5.80292,6.00481,3.68033.06722,5.9221-2.1143,6.00928-5.7978C7071.05317,687.35431,7068.743,685.46726,7065.17858,684.93964Zm29.366,38.02231c3.70653-.194,6.12921-1.95082,6.36424-5.64147.23437-3.68023-1.86259-6.033-5.51688-6.282-3.6759-.25049-6.0155,1.85791-6.28617,5.51375C7088.83029,720.2724,7091.08449,722.25557,7094.54454,722.962Zm-22.57145-14.03022c-3.00547.47508-4.93094,2.0934-4.81993,5.2066a4.89234,4.89234,0,0,0,9.78064-.15627C7076.97878,710.875,7074.97458,709.31162,7071.97309,708.93173Zm4.47345-31.989c1.33689-.36791,2.54152-1.18734,2.46566-2.95366a2.69666,2.69666,0,0,0-3.258-2.82678,2.65361,2.65361,0,0,0-2.481,3.11538C7073.34647,675.9709,7074.4655,676.85252,7076.44654,676.94273ZM7084.262,693.055a2.83448,2.83448,0,0,0-3.101,2.5731,2.655,2.655,0,0,0,2.40263,3.1769,2.68685,2.68685,0,0,0,3.32821-2.73617C7087.0025,694.33573,7085.91151,693.38319,7084.262,693.055Zm23.67977,5.98405c-1.69129.2186-2.78368,1.11444-2.82937,2.84622a2.6395,2.6395,0,0,0,2.67256,2.93737,2.68318,2.68318,0,0,0,3.06471-3.029C7110.792,700.07356,7109.63767,699.19806,7107.94175,699.03907Z" transform="translate(-7039 -646.97638)"/><path class="cls-2" d="M7111.45407,663.03126c-2.55881-.217-4.1491-1.34737-4.34826-3.59245a3.6568,3.6568,0,0,1,3.71738-4.28148c2.51989-.12927,4.01706,1.46664,4.04387,3.95574C7114.89206,661.43414,7113.22261,662.49164,7111.45407,663.03126Z" transform="translate(-7039 -646.97638)"/><path class="cls-2" d="M7108.13573,674.93155a2.82868,2.82868,0,0,1-2.99809-2.65432,2.68345,2.68345,0,0,1,2.94822-3.11765,2.65661,2.65661,0,0,1,2.76363,2.831C7110.87088,673.70023,7109.77714,674.62218,7108.13573,674.93155Z" transform="translate(-7039 -646.97638)"/><path class="cls-2" d="M7123.914,675.07949c1.67194.1867,2.84072,1.0666,2.89821,2.75467a2.68811,2.68811,0,0,1-3.0522,3.017,2.65269,2.65269,0,0,1-2.66512-2.92556C7121.14288,676.22,7122.25438,675.33018,7123.914,675.07949Z" transform="translate(-7039 -646.97638)"/><path class="cls-3" d="M7065.17858,684.93964c3.56441.52762,5.87459,2.41467,5.78636,6.14288-.08718,3.6835-2.329,5.865-6.00928,5.7978-3.6751-.06711-5.84956-2.31656-5.80292-6.00481C7059.19983,687.15184,7061.56325,685.33421,7065.17858,684.93964Z" transform="translate(-7039 -646.97638)"/><path class="cls-3" d="M7094.54454,722.962c-3.46-.70638-5.71425-2.68955-5.43881-6.40973.27067-3.65584,2.61027-5.76424,6.28617-5.51375,3.65429.249,5.75125,2.60178,5.51688,6.282C7100.67375,721.01113,7098.25107,722.768,7094.54454,722.962Z" transform="translate(-7039 -646.97638)"/><path class="cls-3" d="M7071.97309,708.93173c3.00149.37989,5.00569,1.94328,4.96071,5.05033a4.89234,4.89234,0,0,1-9.78064.15627C7067.04215,711.02513,7068.96762,709.40681,7071.97309,708.93173Z" transform="translate(-7039 -646.97638)"/><path class="cls-3" d="M7076.44654,676.94273c-1.981-.09021-3.10007-.97183-3.27328-2.66506a2.65361,2.65361,0,0,1,2.481-3.11538,2.69666,2.69666,0,0,1,3.258,2.82678C7078.98806,675.75539,7077.78343,676.57482,7076.44654,676.94273Z" transform="translate(-7039 -646.97638)"/><path class="cls-3" d="M7084.262,693.055c1.64953.32817,2.74052,1.28071,2.62982,3.01383a2.68685,2.68685,0,0,1-3.32821,2.73617,2.655,2.655,0,0,1-2.40263-3.1769A2.83448,2.83448,0,0,1,7084.262,693.055Z" transform="translate(-7039 -646.97638)"/><path class="cls-3" d="M7107.94175,699.03907c1.69592.159,2.85028,1.03449,2.9079,2.7546a2.68318,2.68318,0,0,1-3.06471,3.029,2.6395,2.6395,0,0,1-2.67256-2.93737C7105.15807,700.15351,7106.25046,699.25767,7107.94175,699.03907Z" transform="translate(-7039 -646.97638)"/></svg>